<?xml version="1.0" standalone="no"?>
<!DOCTYPE svg PUBLIC "-//W3C//DTD SVG 1.1//EN" "http://www.w3.org/Graphics/SVG/1.1/DTD/svg11.dtd" >
<!--
2013-9-30: Created.
-->
<svg>
<metadata>
Created by iconfont
</metadata>
<defs>

<font id="iconfont" horiz-adv-x="1024" >
  <font-face
    font-family="iconfont"
    font-weight="500"
    font-stretch="normal"
    units-per-em="1024"
    ascent="896"
    descent="-128"
  />
    <missing-glyph />
    
    <glyph glyph-name="x" unicode="x" horiz-adv-x="1001"
d="M281 543q-27 -1 -53 -1h-83q-18 0 -36.5 -6t-32.5 -18.5t-23 -32t-9 -45.5v-76h912v41q0 16 -0.5 30t-0.5 18q0 13 -5 29t-17 29.5t-31.5 22.5t-49.5 9h-133v-97h-438v97zM955 310v-52q0 -23 0.5 -52t0.5 -58t-10.5 -47.5t-26 -30t-33 -16t-31.5 -4.5q-14 -1 -29.5 -0.5
t-29.5 0.5h-32l-45 128h-439l-44 -128h-29h-34q-20 0 -45 1q-25 0 -41 9.5t-25.5 23t-13.5 29.5t-4 30v167h911zM163 247q-12 0 -21 -8.5t-9 -21.5t9 -21.5t21 -8.5q13 0 22 8.5t9 21.5t-9 21.5t-22 8.5zM316 123q-8 -26 -14 -48q-5 -19 -10.5 -37t-7.5 -25t-3 -15t1 -14.5
t9.5 -10.5t21.5 -4h37h67h81h80h64h36q23 0 34 12t2 38q-5 13 -9.5 30.5t-9.5 34.5q-5 19 -11 39h-368zM336 498v228q0 11 2.5 23t10 21.5t20.5 15.5t34 6h188q31 0 51.5 -14.5t20.5 -52.5v-227h-327z" />
    

    
    <glyph glyph-name="f11" unicode="&#58897;" d="M409.182208 392.829696l206.144512 0c11.408384 0 20.635648-9.155584 20.635648-20.562944 0-5.305344-2.034688-10.100736-5.305344-13.733888l-101.945344-136.025088c-6.831104-9.009152-19.69152-10.899456-28.775424-4.069376-1.599488 1.163264-2.978816 2.543616-4.069376 4.069376L392.76032 359.98592c-6.757376 9.010176-4.939776 21.943296 4.14208 28.701696C400.60928 391.522048 404.895744 392.829696 409.182208 392.829696L409.182208 392.829696z"  horiz-adv-x="1024" />

    
    <glyph glyph-name="fangdajing" unicode="&#58932;" d="M850.453-0.653l0.105 0.223-197.89 193.493c38.961 45.944 61.363 103.043 63.198 161.203 3.664 70.834-24.038 144.003-74.073 195.682-42.739 45.105-102.838 75.421-164.821 83.209-12.031 1.639-24.352 2.458-36.625 2.458-61.344 0-121.126-19.942-168.322-56.113-54.705-40.781-92.468-101.996-103.616-167.925-11.054-61.446 0.911-127.372 32.811-180.82 21.819-37.152 52.888-69.073 89.828-92.298 33.909-21.453 72.924-35.474 112.775-40.485 11.958-1.62 24.219-2.439 36.445-2.439 56.586 0 112.572 17.3 158.132 48.773l197.642-193.343 3.655-3.368 0.105 0.091c6.515-5.235 14.768-8.14 23.319-8.14 20.202 0 36.637 16.127 36.637 35.947 0 8.787-3.358 17.279-9.308 23.853M649.856 263.257c-32.378-64.734-97.46-112.073-169.899-123.548-33.909-5.773-69.646-3.986-102.941 5.139-64.972 17.433-120.583 63.58-148.808 123.528-32.677 66.559-28.602 150.391 10.387 213.6 34.702 58.404 95.873 99.427 163.56 109.707l4.802 0.71c2.525 0.409 5.069 0.799 7.555 1.082 8.369 0.858 16.882 1.286 25.282 1.286 34.569 0 68.716-7.283 98.811-21.085 55.059-24.691 98.955-70.579 120.409-125.929 23.529-59.109 20.125-128.061-9.157-184.488z"  horiz-adv-x="1024" />

    
    <glyph glyph-name="wujiaoxing" unicode="&#58902;" d="M511.949856 656.124883 626.390991 424.249839 882.290703 387.068008 697.119768 206.578284 740.83315-48.276125 511.949856 72.049335 283.065538-48.276125 326.778921 206.578284 141.607985 387.068008 397.507697 424.249839Z"  horiz-adv-x="1024" />

    
    <glyph glyph-name="zhengpin" unicode="&#58911;" d="M150.760004 662.728329C228.458002 740.427531 328.650788 790.823759 439.344997 806.7234c135.313125 19.420586 270.151813-15.048305 379.578048-97.015026 109.451522-81.992008 180.432752-201.688468 199.8714-337.025675 40.132024-279.470756-154.62052-539.387265-433.951594-579.54578-117.131613-16.806369-237.237484 7.736686-338.210562 69.040135-17.268764 10.500218-22.751274 32.998619-12.278752 50.2433 10.572467 17.138715 32.963699 22.777765 50.237279 12.28116 86.490725-52.569724 189.428982-73.591834 289.8626-59.160056 239.379673 34.33523 406.30664 257.173447 371.944919 496.746989-16.652237 115.994892-77.494495 218.574311-171.32574 288.828232-93.808366 70.281617-209.364945 99.785783-325.332142 83.109463C210.100683 699.883686 43.245965 477.018977 77.661873 237.497214c9.020313-62.702675 30.79261-121.299187 64.797902-174.121784 10.907221-17.0183 5.944905-39.719-10.939734-50.549155-16.985788-10.937325-39.637117-6.023175-50.546747 10.938529C41.279582 85.534261 15.834617 153.898865 5.263354 227.104166c-19.422994 135.315533 15.020609 270.190346 97.066805 379.641868C117.250824 626.733776 133.435849 645.40297 150.760004 662.728329L150.760004 662.728329zM150.760004 662.728329M293.022298 479.670523c-21.096767 0-32.385705 11.288938-33.866814 33.866814 1.481109 21.060643 12.770047 32.349581 33.866814 33.866814l433.49522 0c19.543409-1.517233 30.832348-12.806171 33.866814-33.866814-3.034467-22.577876-14.323405-33.866814-33.866814-33.866814L566.214598 479.670523l0-119.662743 155.787345 0c19.543409-1.517233 30.832348-13.546726 33.866814-36.124602-3.034467-22.577876-14.323405-33.866814-33.866814-33.866814L566.214598 290.016364l0-146.756194 171.591858 0c21.060643-1.517233 33.090135-12.065617 36.124602-31.609026 0-22.577876-10.548384-34.607368-31.609026-36.124602l-460.588671 0c-19.579534 1.517233-30.127918 13.546726-31.609026 36.124602 1.481109 19.543409 12.029492 30.091793 31.609026 31.609026l45.155752 0L326.889112 384.843444c0 22.577876 11.288938 35.347923 33.866814 38.382389 22.577876-3.034467 34.607368-15.804513 36.124602-38.382389l0-241.583274 97.084867 0L493.965395 479.670523 293.022298 479.670523z"  horiz-adv-x="1024" />

    
    <glyph glyph-name="gouwuche" unicode="&#59081;" d="M753.429-27.004c-43.1 0-78.042-33.971-78.042-77.377 0-43.431 34.942-78.61 78.042-78.61 43.097 0 78.041 35.18 78.041 78.61C831.47-60.974 796.526-27.004 753.429-27.004zM328.326-27.004c-43.123 0-75.671-32.76-75.671-76.168 0-43.429 32.549-78.61 75.671-78.61 43.099 0 78.041 35.182 78.041 78.61C406.367-59.763 371.425-27.004 328.326-27.004zM1022.804 282.058l-0.829 268.522c0 0-3.889 80.815-73.537 80.815L210.931 630.4l-16.262 39.637c0 0-16.453 117.963-95.727 117.963 0 0-95.75 0-95.75-116.185l80.294 0.118c0 0 98.333-565.8 98.333-582.846 0-21.383 17.165-77.377 38.405-77.377l725.369 0c21.218 0 38.404 36.649 38.404 58.009 0 21.384-17.187 58.058-38.404 58.058L273.067 127.777l-19.084 77.165 693.651 3.058C947.634 207.999 1022.804 207.098 1022.804 282.058zM330.697 321.245c0-21.36-17.187-38.689-38.405-38.689l-1.208 0c-21.217 0-38.428 17.329-38.428 38.689l0 38.689c0 21.383 17.211 38.712 38.428 38.712l1.208 0c21.218 0 38.405-17.33 38.405-38.712L330.697 321.245zM330.697 476.024c0-21.36-17.187-38.688-38.405-38.688L253.84 437.336c-21.193 0-38.404 17.329-38.404 38.688l0 38.712c0 21.36 17.211 38.689 38.404 38.689l38.452 0c21.218 0 38.405-17.329 38.405-38.689L330.697 476.024zM484.432 321.245c0-21.36-17.211-38.689-38.428-38.689l-38.452 0c-21.193 0-38.404 17.329-38.404 38.689l0 38.689c0 21.383 17.211 38.712 38.404 38.712l38.452 0c21.217 0 38.428-17.33 38.428-38.712L484.432 321.245zM484.432 476.024c0-21.36-17.211-38.688-38.428-38.688l-38.452 0c-21.193 0-38.404 17.329-38.404 38.688l0 38.712c0 21.36 17.211 38.689 38.404 38.689l38.452 0c21.217 0 38.428-17.329 38.428-38.689L484.432 476.024zM638.145 321.245c0-21.36-17.212-38.689-38.427-38.689l-38.43 0c-21.217 0-38.428 17.329-38.428 38.689l0 38.689c0 21.383 17.211 38.712 38.428 38.712l38.43 0c21.215 0 38.427-17.33 38.427-38.712L638.145 321.245zM638.145 476.024c0-21.36-17.212-38.688-38.427-38.688l-38.43 0c-21.217 0-38.428 17.329-38.428 38.688l0 38.712c0 21.36 17.211 38.689 38.428 38.689l38.43 0c21.215 0 38.427-17.329 38.427-38.689L638.145 476.024zM791.858 321.245c0-21.36-17.212-38.689-38.429-38.689l-38.428 0c-21.217 0-38.429 17.329-38.429 38.689l0 38.689c0 21.383 17.212 38.712 38.429 38.712l38.428 0c21.217 0 38.429-17.33 38.429-38.712L791.858 321.245zM791.858 476.024c0-21.36-17.212-38.688-38.429-38.688l-38.428 0c-21.217 0-38.429 17.329-38.429 38.688l0 38.712c0 21.36 17.212 38.689 38.429 38.689l38.428 0c21.217 0 38.429-17.329 38.429-38.689L791.858 476.024zM945.571 321.245c0-21.36-17.211-38.689-38.43-38.689l-38.428 0c-21.218 0-38.429 17.329-38.429 38.689l0 38.689c0 21.383 17.211 38.712 38.429 38.712l38.428 0c21.219 0 38.43-17.33 38.43-38.712L945.571 321.245zM945.571 476.024c0-21.36-17.211-38.688-38.43-38.688l-38.428 0c-21.218 0-38.429 17.329-38.429 38.688l0 38.712c0 21.36 17.211 38.689 38.429 38.689l38.428 0c21.219 0 38.43-17.329 38.43-38.689L945.571 476.024z"  horiz-adv-x="1029" />

    
    <glyph glyph-name="search2" unicode="&#58922;" d="M886.721 90.815l-109.511 109.501c-10.071 10.084-26.413 10.084-36.492 0l-2.949-2.947c0 0-54.103 53.791-55.538 54.693 42.858 53.354 68.521 121.108 68.521 194.864 0 171.993-139.423 311.414-311.407 311.414-171.984 0-311.406-139.422-311.406-311.414 0-171.974 139.422-311.406 311.406-311.406 73.768 0 141.53 25.669 194.884 68.537 0.903-1.432 54.69-55.525 54.69-55.525l-2.953-2.951c-10.071-10.085-10.071-26.437 0-36.506l109.505-109.504c10.082-10.084 26.422-10.084 36.503 0l54.751 54.752c10.072 10.084 10.072 26.413-0.002 36.493zM439.344 255.477c-105.736 0-191.447 85.712-191.447 191.448 0 105.761 85.711 191.473 191.447 191.473 105.748 0 191.471-85.712 191.471-191.473 0-105.735-85.721-191.448-191.471-191.448z"  horiz-adv-x="1024" />

    
    <glyph glyph-name="tengxun" unicode="&#59036;" d="M125.344 219.008c-32.768-78.848-38.112-154.080-11.776-168.128 18.144-9.696 46.592 12.352 73.248 52.832 10.56-44.096 36.64-84.032 73.92-116.064-39.104-14.752-64.64-38.848-64.64-66.144 0-44.896 69.12-81.184 154.4-81.184 76.928 0 140.64 29.504 152.416 68.288 3.168 0.064 15.296 0.064 18.368 0 11.808-38.72 75.584-68.288 152.448-68.288 85.28 0 154.4 36.352 154.4 81.184 0 27.264-25.504 51.392-64.64 66.144 37.216 32.064 63.424 71.968 73.92 116.064 26.624-40.48 55.008-62.528 73.184-52.832 26.336 14.048 21.152 89.344-11.744 168.128-25.76 61.984-60.704 107.616-87.424 117.696 0.384 3.936 0.576 7.936 0.576 11.904 0 23.936-6.496 46.080-17.632 64.096 0.192 1.376 0.192 2.816 0.192 4.224 0 11.008-2.592 21.344-6.944 30.304-6.752 161.088-109.408 288.992-275.488 288.992-166.176 0-268.896-127.904-275.552-288.992-4.416-8.992-6.976-19.328-6.976-30.304 0-1.376 0.096-2.816 0.16-4.224-11.040-18.016-17.536-40.128-17.536-64.096 0-3.968 0.16-7.936 0.48-11.904-26.56-10.112-61.632-55.776-87.36-117.696v0z"  horiz-adv-x="1024" />

    
    <glyph glyph-name="anquan" unicode="&#58916;" d="M855.275227 618.743508l-37.554314 0.615007c-0.895393 0-50.620911 1.765203-137.533376 36.548404-89.14225 35.706223-146.632615 76.704986-147.172921 77.102029l-22.710234 16.180518L487.773226 733.008948c-0.538259-0.396019-58.030671-41.395806-147.174967-77.102029-86.911442-34.783201-136.637983-36.548404-137.442302-36.548404l-37.731346-0.615007 0-377.098567c0-189.301414 309.066101-389.134695 344.970846-389.491829 35.054377-0.346901 345.057827 200.192462 345.057827 389.489782L855.275227 618.743508zM469.628984 134.456686 308.506353 269.797118l49.535183 57.486272 103.363136-86.758969 196.174961 222.847437 57.93755-49.548486L469.628984 134.456686z"  horiz-adv-x="1024" />

    
    <glyph glyph-name="miaosha" unicode="&#58941;" d="M507.270279 389.237281c-11.144828 0-20.179598 9.03477-20.179598 20.179598l0 341.78427c0 11.144828 9.03477 20.179598 20.179598 20.179598 11.144828 0 20.179598-9.03477 20.179598-20.179598l0-321.604672 321.604672 0c11.144828 0 20.179598-9.03477 20.179598-20.179598 0-11.144828-9.03477-20.179598-20.179598-20.179598L507.270279 389.237281zM1006.632447 301.095825c0.031722-0.465604 0.070608-0.929162 0.070608-1.402953 0-11.144828-9.03477-20.178575-20.178575-20.178575-11.144828 0-20.179598 9.03477-20.179598 20.178575 0 1.489934 0.172939 2.938935 0.478907 4.336772l-0.743944 0.186242c5.030573 27.378557 7.679913 55.579853 7.679913 84.391039 0 256.876462-208.983685 465.860147-465.860147 465.860147s-465.860147-208.983685-465.860147-465.860147 208.983685-465.860147 465.860147-465.860147c146.645918 0 277.643438 68.136843 363.092575 174.386726 3.554966 5.750981 9.899464 9.595542 17.157775 9.595542 11.144828 0 20.179598-9.03477 20.179598-20.178575 0-4.596691-1.554402-8.819876-4.142343-12.213159l0.285502-0.228197c-92.835362-116.828822-236.097206-191.872982-396.572084-191.872982-279.215236 0-506.369769 227.154533-506.369769 506.369769S228.685399 894.976694 507.900635 894.976694s506.369769-227.154533 506.369769-506.369769C1014.270405 358.763223 1011.613902 329.534528 1006.632447 301.095825z"  horiz-adv-x="1024" />

    
    <glyph glyph-name="tengxun1" unicode="&#58910;" d="M512 768c64 0 115.2-19.2 160-64 44.8-44.8 64-96 64-160 0-19.2 0-32 6.4-44.8 6.4-19.2 12.8-32 12.8-44.8 0-32 12.8-57.6 32-83.2 25.6-32 38.4-51.2 44.8-76.8 0 0 0-6.4 0-6.4 12.8-38.4 19.2-64 12.8-96-32-12.8-57.6-32-76.8-64-19.2-38.4-19.2-83.2 0-115.2 0 0 0 0 0 0-6.4-6.4-19.2-12.8-51.2-12.8-12.8 0-19.2 6.4-32 6.4-6.4 0-19.2 0-25.6 0-6.4 0-6.4 0-12.8 0-6.4 0-6.4 0-6.4 0 0 0 0 0 0 0C576 38.4 569.6 64 524.8 64L492.8 64c-44.8 0-83.2-25.6-102.4-57.6 0 0-6.4 0-12.8 0-6.4 0-12.8 0-19.2 0-6.4 0-19.2 0-25.6 0-51.2 0-70.4 6.4-76.8 6.4 0 0 0 0 0 0 19.2 38.4 19.2 83.2 0 121.6-19.2 32-44.8 51.2-76.8 64-6.4 25.6 0 57.6 12.8 89.6 0 6.4 12.8 12.8 12.8 19.2C224 339.2 256 384 256 448L256 454.4c0 0 0 12.8 12.8 32 6.4 19.2 12.8 38.4 12.8 57.6 0 51.2 25.6 108.8 76.8 160C403.2 748.8 448 768 512 768M512 896C416 896 332.8 864 262.4 793.6 198.4 723.2 153.6 640 153.6 544 140.8 518.4 128 486.4 128 454.4L128 448c0-32-51.2-76.8-64-115.2-19.2-57.6-25.6-108.8-19.2-153.6 6.4-51.2 32-83.2 64-96 6.4 0 19.2-6.4 25.6-6.4-12.8-19.2-19.2-38.4-19.2-64 0-38.4 19.2-76.8 64-102.4 38.4-25.6 89.6-32 147.2-32 12.8 0 32 0 44.8 0 44.8 0 89.6-6.4 115.2 57.6l32 0c32-64 83.2-57.6 128-57.6 12.8 0-12.8 0 51.2 0L697.6-128c64 0 108.8 12.8 147.2 38.4 38.4 25.6 57.6 51.2 57.6 96 0 25.6-12.8 57.6-25.6 57.6 0 0 0 0 0 0 6.4 0 19.2 6.4 25.6 12.8 38.4 12.8 57.6 44.8 64 96 6.4 44.8 0 96-19.2 153.6-12.8 44.8-38.4 83.2-70.4 121.6 0 32-6.4 57.6-19.2 89.6 0 96-32 179.2-102.4 249.6C691.2 864 608 896 512 896L512 896z"  horiz-adv-x="1024" />

    
    <glyph glyph-name="zhidemai" unicode="&#59162;" d="M511.394526 894.760414c-282.435288 0-511.394526-228.955146-511.394526-511.380207 0-282.431197 228.957192-511.380207 511.394526-511.380207s511.394526 228.94901 511.394526 511.380207C1022.787006 665.805268 793.829814 894.760414 511.394526 894.760414zM588.559754 74.443151 296.334602 74.443151c-24.17192 0-43.833466 19.661546-43.833466 43.833466L252.501137 615.059987c0 24.17192 19.661546 43.833466 43.833466 43.833466l409.114393 0c24.17192 0 43.833466-19.661546 43.833466-43.833466l0-204.558219L720.060151 410.501768 720.060151 615.059987c0 8.055261-6.549758 14.611155-14.611155 14.611155L296.334602 629.671143c-8.055261 0-14.611155-6.555894-14.611155-14.611155l0-496.783371c0-8.061398 6.555894-14.611155 14.611155-14.611155l292.225151 0L588.559754 74.443151zM354.093974 328.322969l0 29.220265 116.889242 0 0-29.220265L354.093974 328.322969zM441.762951 269.878347l0-29.220265-87.666932 0 0 29.220265L441.762951 269.878347zM354.093974 415.987855 354.093974 445.20812l146.111553 0 0-29.220265L354.093974 415.987855zM354.093974 518.263896l0 29.21822 175.335909 0 0-29.21822L354.093974 518.263896zM868.157905 240.461712c-15.496866-75.880641-126.292501-137.295358-131.00129-139.862487l-6.535439-3.581707-6.733855 3.18283c-6.263385 2.968051-153.44679 73.69807-138.393803 166.388801 6.721581 41.393159 35.743431 69.204061 72.200749 69.204061 29.33686 0 56.305006-18.32173 74.497869-49.841161 13.297931 20.931815 35.086819 49.612062 68.162891 49.612062 15.552095 0 31.376244-6.564076 47.044934-19.491768l2.168252-2.225527C867.257875 291.37268 873.52126 266.687335 868.157905 240.461712zM800.350935 306.339756c-21.66002 0-38.568295-27.82522-48.671123-44.447122l-3.025325-4.937887c-4.037858-6.463846-10.258287-10.160102-17.080099-10.160102-8.846878 0-14.496606 6.007695-16.010292 7.862982l-2.168252 3.567388c-12.899054 30.263481-33.730638 48.341794-55.705669 48.341794-21.588427 0-39.010128-17.949445-43.348677-44.661902-9.047339-55.662713 74.526506-111.039053 115.234416-131.915638 22.858695 13.698853 99.082983 62.954995 109.954927 116.347179 3.495795 17.180329-0.413195 32.961523-11.958115 48.186334C817.746044 302.359173 808.584156 306.339756 800.350935 306.339756z"  horiz-adv-x="1025" />

    
    <glyph glyph-name="iconfontmianbuhuli" unicode="&#58927;" d="M303.899242 27.533332C157.944056 91.314984 63.285162 186.01481 22.553483 309.000865c-17.452487 52.698223-24.835641 110.627586-21.941732 172.179454 2.294252 48.807612 11.024078 100.000552 25.946952 152.156422C51.900881 721.90901 86.061912 782.195048 87.50375 784.718521l35.538401-20.308535-17.769712 10.154267 17.775852-10.144034c-0.332575-0.583285-33.520441-59.31492-57.44841-143.43683-21.782096-76.580143-40.179095-190.675714-4.116761-299.335483 36.96489-111.379717 124.040061-197.715037 258.807441-256.608356L303.899242 27.533332zM504.163335-101.62019c-30.596855 0-69.103868 17.933441-117.722168 54.826699-43.665499 33.135678-83.225493 72.485895-102.921068 92.992951-53.896514 56.132438-121.758088 245.913782-124.621299 253.966179l-1.181919 3.325745 0 3.529383c0 14.996552 14.871709 71.613014 206.225875 170.473603 153.304572 79.160921 216.324884 294.66409 232.216829 360.004237 1.599428 9.266038 3.677762 18.723434 6.176676 28.121478l39.926338-8.857738c-0.075725-0.427742-1.895163-10.546194-5.987365-27.522844-15.719007-93.836155 21.956058-177.641863 111.985514-249.111614 69.621661-55.268768 145.69936-81.931011 146.459676-82.194l15.253402-5.273097-1.557472-16.068977c-9.357112-95.54917-35.731806-191.620225-78.392418-285.546432-33.372062-73.474408-67.566862-124.736932-82.511225-143.44297-15.157211-18.939351-60.784388-56.339146-106.146529-87.008656C599.38914-67.78764 541.511965-101.62019 504.163335-101.62019zM199.683692 307.709453c20.657482-56.94392 75.126025-193.338357 113.360837-233.159294 78.901001-82.153068 153.920602-135.238101 191.118805-135.238101 20.444635 0 63.164598 20.6319 114.275673 55.189973 45.967938 31.079856 86.194104 65.031109 97.104595 78.662571 32.326243 40.464597 127.316687 197.218734 150.457734 391.9406-27.181059 11.021008-85.928045 37.71702-142.30403 82.262562-44.769646 35.374672-78.698386 74.716702-100.845803 116.934223-9.18622 17.507746-16.335037 35.490306-21.436218 53.878095-9.742898-25.139563-21.511943-51.994188-35.58138-78.94398-49.110511-94.076632-110.716614-160.729681-183.106318-198.10901C235.325447 364.973668 205.30676 319.420169 199.683692 307.709453zM874.249185-19.038356c-11.703553 0-28.02938 1.666966-45.653783 8.532327-29.951149 11.664667-69.048609 40.888246-85.22708 113.859187l39.96113 8.859785c9.671267-43.615357 29.367865-71.858608 58.545394-83.943854 4.294816-1.779529 8.520047-3.083222 12.537548-4.02671-5.595438 17.816784-9.142218 40.758286-8.257058 68.426439 2.116197 66.192561 28.346605 141.842519 77.960583 224.851071 54.816466 91.702562 61.962214 202.592115 58.303894 279.469016-4.022617 84.529185-21.636786 147.789974-21.813818 148.419308l39.386032 11.145851c0.769526-2.718925 18.913768-67.614957 23.263843-156.591431 2.563382-52.417837-0.239454-102.348016-8.330736-148.404981-10.218736-58.168818-28.951379-110.330828-55.67502-155.038052-57.3031-95.873558-70.882374-164.484192-72.182996-205.158566-1.442862-45.108361 11.262508-69.63701 16.278755-75.281567l23.851221-26.836205-35.243689-6.850012C890.550453-17.87895 884.005386-19.038356 874.249185-19.038356zM676.68048 345.941196c-0.87288 0-1.739621 0.00921-2.613524 0.027629-61.726853 1.305739-102.423741 49.326429-104.126522 51.369971l15.725146 13.099343 15.670911 13.163811c0.304945-0.360204 30.981618-35.986609 73.931826-36.715203 29.516244-0.50449 59.182914 15.493879 88.26016 47.538713l30.3134-27.505447C757.119511 366.447229 717.711989 345.941196 676.68048 345.941196zM506.312278 46.128853c-17.232476 0-32.532951 3.167133-45.336558 7.433296-39.217187 13.068643-63.178925 39.136346-64.179718 40.23947l30.316469 27.501354-15.158235-13.751189 15.093766 13.82282c0.184195-0.199545 18.805298-20.071128 48.323589-29.452799 38.214347-12.144598 77.380368-1.620917 116.41336 31.278377l26.37981-31.296797C576.761793 57.005574 538.234315 46.128853 506.312278 46.128853z"  horiz-adv-x="1026" />

    
    <glyph glyph-name="zhidemailiebiaodianzan" unicode="&#59204;" d="M488.121718 793.246255c10.514137-17.560388 20.596578-41.508233 20.596578-68.760286 0-42.670332-4.488814-54.094917-17.816132-88.008583-5.679557-14.456682-12.75036-32.448766-20.445178-55.565955-8.652322-25.993794-4.284219-54.561393 11.739661-76.782456 16.02388-22.221062 41.749655-35.388796 69.144925-35.388796 284.157898-0.004092 320.371212-12.062921 335.836548-17.212577 1.683817-0.56059 3.332852-1.104813 4.963475-1.628576-0.008184-0.1514-0.020459-0.306892-0.028643-0.468523-0.147308-2.451048-0.329398-5.503605-0.517625-10.460942-7.314271-176.195164-40.313398-300.304535-66.708198-373.396097-25.146771-69.640045-48.227132-104.805833-50.506321-108.195972-1.30327-0.077746-2.862284-0.128895-4.705685-0.128895l-195.349348 0c-87.49505 0-177.745995 20.113734-180.598049 20.750024-1.203019 0.288479-2.412175 0.550361-3.627469 0.785645-40.168136 7.793023-71.135634 13.769243-94.778632 18.309206l0.272111 466.226985c2.766124 7.20379 13.65467 29.737883 55.291798 84.890556C411.058967 627.927361 453.393763 715.246459 488.121718 793.246255M466.095021 894.977025c-28.976789 0-37.622974-25.688948-46.86453-46.717221-33.960723-77.365552-75.992719-168.68039-136.38507-248.689309-49.853663-66.039173-72.496191-106.542844-72.496191-130.830316l-0.317122-542.209474c0 0 32.28509-5.910749 163.831489-31.431929l0.173906-0.040919c10.481402-2.363072 105.188425-23.05581 200.288271-23.05581l195.349348 0c37.262887 0 60.267548 11.230219 74.482808 36.395404 3.690894 5.301056 31.395102 46.488075 60.909976 128.223776 28.430521 78.726108 63.937982 211.813107 71.702362 398.812933 0.165722 4.423344 0.319168 6.946 0.441925 8.979674 0.2271 3.600872 0.372363 5.984404 0.372363 13.916552 0 25.703269-13.443937 59.557603-51.328793 70.390908l-1.229616 0.32326c-31.364413 8.23904-34.087572 24.938084-373.68253 24.944222 25.386147 76.266877 42.623275 89.375278 42.623275 170.497194 0 59.970885-27.640784 106.407811-42.623275 127.871872C527.921583 885.915513 516.118497 894.977025 466.095021 894.977025L466.095021 894.977025zM210.795247 432.105398 210.795247 5.868552 125.54665 5.868552 125.54665 432.105398 210.795247 432.105398M236.412587 517.353995 99.935449 517.353995c-32.888646 0-59.639441-18.835015-59.639441-41.991077l0-512.731427c0-23.156062 26.74875-42.00949 59.639441-42.00949l136.475092 0c32.878416 0 59.631257 18.853429 59.631257 42.00949L296.041798 475.360872C296.043844 498.51898 269.291002 517.353995 236.412587 517.353995L236.412587 517.353995z"  horiz-adv-x="1024" />

    
    <glyph glyph-name="artboard19copy" unicode="&#58915;" d="M960 491.330362C960 172.221123 560.676445-124.819242 512.172614-128 463.294899-124.820451 64.000001 172.21991 64.000001 491.330362L64 765.841042C326.973565 770.082865 469.545843 862.967626 511.970662 896 554.482813 862.967624 697.025072 770.082865 960 765.841042L960 491.330362 960 491.330362ZM513.3352 800.640238C444.280077 758.719195 321.177011 703.917466 135.21382 690.632969L135.21382 472.741766C135.21382 446.781523 138.908986 420.820064 144.648228 395.008973L513.3352 395.008973 513.3352 800.640238 513.3352 800.640238ZM513.3352-79.109904 516.290787-81.028304C598.757942-33.401779 838.657184 172.671011 887.818723 395.008973L513.335197 395.008973 513.3352-79.109904 513.3352-79.109904Z"  horiz-adv-x="1024" />

    
    <glyph glyph-name="shouji" unicode="&#58901;" d="M794.770036 896 228.223389 896C205.69064 896 187.425673 878.023329 187.425673 855.841712l0-943.683424c0-22.181617 18.2662-40.158288 40.797716-40.158288l566.546647 0c22.531516 0 40.798948 17.976671 40.798948 40.158288L835.568984 855.841712C835.568984 878.018401 817.301552 896 794.770036 896L794.770036 896zM477.403133 840.629735l68.187159 0c12.55447 0 22.72741-10.174172 22.72741-22.72741 0-12.55447-10.17294-22.72741-22.72741-22.72741l-68.187159 0c-12.553238 0-22.731106 10.17294-22.731106 22.72741C454.672026 830.455563 464.849895 840.629735 477.403133 840.629735L477.403133 840.629735zM556.954613-79.042494l-90.919498 0 0 90.918266 90.919498 0L556.954613-79.042494 556.954613-79.042494zM766.769502 79.278122c0-22.531516-18.2662-40.797716-40.797716-40.797716L297.022871 38.480406c-22.531516 0-40.798948 18.2662-40.798948 40.797716L256.223923 728.529035c0 22.531516 18.267432 40.797716 40.798948 40.797716l428.948915 0c22.531516 0 40.797716-18.2662 40.797716-40.797716L766.769502 79.278122 766.769502 79.278122zM766.769502 79.278122"  horiz-adv-x="1024" />

    
    <glyph glyph-name="meizhuanghuliicon160005" unicode="&#59053;" d="M637.534208 432.7424l-29.32736 0c-10.641408 0-20.84864-9.289728-21.839872-19.898368l-1.998848-21.692416 77.0048 0-2.015232 21.692416C658.39104 423.436288 648.183808 432.7424 637.534208 432.7424zM663.085056 372.793344l-80.44544 0-19.628032-211.337216c-0.442368-4.513792 0.876544-8.708096 3.653632-11.771904 2.78528-3.063808 6.823936-4.75136 11.362304-4.75136l89.554944 0c4.530176 0 8.568832 1.687552 11.362304 4.75136s4.112384 7.258112 3.670016 11.771904L663.085056 372.793344zM623.804416 623.812608c-47.546368 0-92.32384-15.007744-127.787008-42.55744l75.743232-107.782144 20.774912-0.851968-6.897664 45.38368c-0.77824 5.005312 2.678784 9.674752 7.684096 10.436608 4.947968 0.679936 9.699328-2.678784 10.4448-7.684096l7.430144-48.922624 21.020672-0.851968 6.029312 49.668096c0.606208 5.029888 5.218304 8.658944 10.223616 8.011776 5.046272-0.622592 8.609792-5.193728 8.003584-10.215424l-5.849088-48.185344 21.676032-0.876544 75.276288 115.441664c-33.34144 24.018944-74.522624 37.732352-117.59616 38.912L623.804416 623.812608zM512 875.52c-271.458304 0-491.52-220.061696-491.52-491.52s220.061696-491.52 491.52-491.52 491.52 220.061696 491.52 491.52S783.458304 875.52 512 875.52zM450.461696 180.79744c0-40.484864-32.940032-73.416704-73.416704-73.416704l-70.156288 0c-40.484864 0-73.416704 32.93184-73.416704 73.416704L233.472 396.869632c0 23.568384 11.362304 44.35968 28.688384 57.79456L262.160384 546.889728c-0.032768 8.773632 0.950272 86.663168 42.909696 109.3632 7.471104 3.989504 23.035904 8.880128 43.54048-3.743744 32.661504-20.135936 68.083712-82.419712 66.543616-135.602176 0.237568-37.453824 0.704512-52.330496 1.015808-58.146816 20.537344-13.033472 34.291712-35.823616 34.291712-61.89056L450.461696 180.79744zM787.562496 578.854912 697.409536 440.614912c-1.712128-2.605056-3.997696-4.677632-6.627328-6.111232 2.637824-5.709824 4.54656-11.821056 5.152768-18.259968l23.257088-251.396096c1.376256-14.917632-3.284992-29.089792-13.123584-39.878656-9.822208-10.788864-23.51104-16.719872-38.486016-16.719872L578.02752 108.249088c-14.999552 0-28.663808 5.955584-38.494208 16.736256-9.814016 10.788864-14.467072 24.961024-13.090816 39.878656l23.379968 251.41248c0.745472 7.929856 3.31776 15.376384 7.053312 22.1184-3.899392 1.18784-7.479296 3.186688-9.887744 6.586368L456.359936 573.882368c-5.300224 7.544832-4.210688 17.850368 2.58048 24.068096 45.572096 41.918464 107.134976 64.372736 172.064768 62.513152 57.081856-1.55648 111.427584-22.020096 153.083904-57.606144C791.10144 596.836352 792.584192 586.571776 787.562496 578.854912z"  horiz-adv-x="1024" />

    
    <glyph glyph-name="30tianwuyoutuihuanhuo" unicode="&#58887;" d="M511.992952 810.643509c48.741624-11.765289 208.412251-53.784034 374.805756-114.290946l0-341.191365 0-1.680468 0-1.680468c0-3.361943 5.042411-282.36492-374.805756-411.782091C135.506728 67.753867 137.187195 340.034973 137.187195 351.800262l0 1.680468 0 1.680468L137.187195 696.352562C301.900233 756.859475 461.570861 798.87822 511.992952 810.643509M511.992952 879.553767c-1.680468 0-5.042411 0-6.722878 0C466.613271 869.468946 266.604367 820.727323 69.957405 745.094186l0-388.251513c0 0-11.765289-341.191365 442.035547-485.73476 455.481304 142.862928 442.035547 485.73476 442.035547 485.73476L954.028499 743.413718C755.701069 819.046855 555.692165 869.468946 517.035362 877.873299 515.354895 879.553767 513.674427 879.553767 511.992952 879.553767L511.992952 879.553767zM701.559596 350.408766c13.809237 0 25.645007 3.945928 37.481784 9.863309 11.836777 5.918388 19.727626 15.781698 27.618475 27.618475 7.890849 11.836777 13.809237 25.645007 17.754158 41.426705 3.945928 15.781698 5.918388 33.535856 5.918388 53.263482 0 13.809237-1.972461 27.618475-3.945928 39.454244-1.972461 13.809237-5.918388 25.645007-9.863309 35.509323-3.945928 11.836777-9.863309 21.700086-15.781698 31.563396-5.918388 9.863309-13.809237 17.754158-19.727626 23.672547-7.890849 5.918388-15.781698 11.836777-25.645007 15.781698-9.863309 3.945928-19.727626 5.918388-29.590935 5.918388-11.836777 0-23.672547-3.945928-35.509323-9.863309-9.863309-5.918388-19.727626-13.809237-27.618475-25.645007-7.890849-11.836777-13.809237-25.645007-17.754158-41.426705s-5.918388-35.509323-5.918388-55.235942c0-19.727626 1.972461-39.454244 7.890849-57.20941 3.945928-17.754158 11.836777-35.509323 21.700086-49.317554 9.863309-13.809237 19.727626-25.645007 33.535856-33.535856C669.996201 354.354694 685.777898 350.408766 701.559596 350.408766zM703.532057 666.044735c19.727626 0 39.454244-3.945928 55.235942-9.863309 17.754158-7.890849 31.563396-17.754158 45.372633-31.563396 11.836777-13.809237 21.700086-29.590935 29.590935-49.317554 7.890849-19.727626 9.863309-43.400172 9.863309-69.045179 0-19.727626-1.972461-35.509323-5.918388-53.263482-3.945928-15.781698-9.863309-31.563396-15.781698-45.372633s-15.781698-25.645007-23.672547-37.481784c-9.863309-9.863309-19.727626-19.727626-31.563396-27.618475-11.83577-7.890849-23.672547-13.809237-37.481784-17.754158-13.809237-3.945928-27.618475-5.918388-41.426705-5.918388-19.727626 0-39.454244 3.945928-55.235942 9.863309-17.754158 5.918388-31.563396 17.754158-45.372633 29.590935-11.836777 13.809237-23.672547 29.590935-29.590935 49.317554-7.890849 19.727626-11.83577 43.400172-11.83577 69.045179 0 17.754158 1.972461 35.509323 5.918388 51.291021s9.863309 31.563396 15.781698 45.372633c7.890849 13.809237 15.781698 25.645007 25.645007 37.481784 9.863309 9.863309 19.727626 19.727626 31.563396 27.618475 11.83577 7.890849 23.672547 13.809237 37.481784 17.754158C673.942129 664.072274 687.750359 666.044735 703.532057 666.044735zM301.097757 441.154032c15.781698 5.918388 31.563396 11.836777 45.372633 19.727626 13.809237 7.890849 27.618475 17.754158 39.454244 27.618475s19.727626 21.700086 27.618475 35.509323c5.918388 13.809237 9.863309 27.618475 9.863309 45.372633 0 11.836777-1.972461 21.700086-5.918388 29.590935-3.945928 7.890849-9.863309 15.781698-15.781698 21.700086-5.918388 5.918388-15.781698 9.863309-23.672547 13.809237-9.863309 3.945928-19.727626 3.945928-29.590935 3.945928s-19.727626-1.972461-27.618475-3.945928c-7.890849-1.972461-13.809237-5.918388-17.754158-9.863309-3.945928-3.945928-7.890849-7.890849-9.863309-13.809237s-3.945928-11.836777-3.945928-15.781698c0-7.890849 1.972461-15.781698 3.945928-23.672547 3.945928-7.890849 7.890849-13.809237 15.781698-19.727626l0-1.972461c-7.890849-3.945928-17.754158-5.918388-25.645007-5.918388-5.918388 0-9.863309 0-15.781698 1.972461-3.945928 1.972461-7.890849 3.945928-11.836777 7.890849-3.945928 3.945928-5.918388 7.890849-7.890849 11.836777-1.972461 3.945928-1.972461 9.863309-1.972461 15.781698 0 7.890849 1.972461 17.754158 5.918388 25.645007 3.945928 7.890849 9.863309 13.809237 17.754158 21.700086 7.890849 5.918388 15.781698 11.836777 23.672547 17.754158 9.863309 5.918388 19.727626 9.863309 29.590935 11.836777 9.863309 3.945928 19.727626 5.918388 31.563396 7.890849 9.863309 1.972461 19.727626 1.972461 29.590935 1.972461 11.836777 0 25.645007-1.972461 37.481784-5.918388 11.836777-3.945928 21.700086-7.890849 31.563396-15.781698 9.863309-5.918388 15.781698-15.781698 21.700086-25.645007 5.918388-9.863309 7.890849-21.700086 7.890849-35.509323 0-11.836777-1.972461-21.700086-5.918388-33.535856-3.945928-9.863309-7.890849-19.727626-13.809237-29.590935-5.918388-9.863309-11.836777-17.754158-19.727626-25.645007-7.890849-7.890849-15.781698-15.781698-25.645007-21.700086-7.890849-5.918388-17.754158-11.836777-27.618475-17.754158-9.863309-5.918388-19.727626-9.863309-27.618475-13.809237l0-1.972461 1.972461 0 1.972461 0 5.918388 0c15.781698 0 31.563396-1.972461 47.345093-7.890849 15.781698-3.945928 29.590935-11.836777 41.426705-21.700086s21.700086-19.727626 27.618475-33.535856c7.890849-13.809237 9.863309-27.618475 9.863309-45.372633 0-15.781698-1.972461-29.590935-7.890849-43.400172-5.918388-13.809237-11.836777-25.645007-19.727626-37.481784-7.890849-11.83577-17.754158-21.700086-29.590935-29.590935-11.836777-7.890849-23.672547-15.781698-37.481784-21.700086-13.809237-5.918388-27.618475-9.863309-43.400172-13.809237-13.809237-3.945928-29.590935-3.945928-45.372633-3.945928-5.918388 0-13.809237 0-21.700086 1.972461-7.890849 0-15.781698 1.972461-21.700086 3.945928-7.890849 1.972461-13.809237 3.945928-21.700086 7.890849-7.890849 3.945928-13.809237 5.918388-19.727626 11.83577s-9.863309 9.863309-13.809237 15.781698c-3.945928 5.918388-3.945928 11.83577-3.945928 19.727626 0 3.945928 0 7.890849 1.972461 11.83577 1.972461 3.945928 3.945928 7.890849 7.890849 9.863309 3.945928 3.945928 5.918388 5.918388 11.836777 7.890849 3.945928 1.972461 7.890849 1.972461 13.809237 1.972461 3.945928-11.83577 9.863309-19.727626 17.754158-27.618475 7.890849-7.890849 13.809237-13.809237 21.700086-19.727626s15.781698-9.863309 25.645007-11.836777 17.754158-3.945928 27.618475-3.945928c11.836777 0 25.645007 1.972461 37.481784 7.890849 11.836777 3.945928 23.672547 11.83577 31.563396 21.700086 9.863309 9.863309 17.754158 19.727626 23.672547 33.535856 5.918388 13.809237 7.890849 27.618475 7.890849 43.400172 0 17.754158-3.945928 31.563396-9.863309 45.372633-5.918388 13.809237-13.809237 23.672547-23.672547 33.535856s-21.700086 15.781698-35.509323 21.700086c-13.809237 3.945928-27.618475 7.890849-43.400172 7.890849l-5.918388 0c-1.972461 0-5.918388 0-7.890849 0s-3.945928 0-7.890849 0L301.097757 441.154032z"  horiz-adv-x="1024" />

    
    <glyph glyph-name="tengxunweibo-copy" unicode="&#58881;" d="M875.231 367.711c-67.057-195.455-282.083-300.424-479.397-233.661-26.913 9.101-53.18 21.335-77.254 35.917-15.854 9.845-20.258 30.26-10.98 45.82 10.1 15.775 30.514 20.727 46.172 10.961 19.827-12.174 41.338-22.176 63.67-29.731 162.298-54.922 339.080 31.434 394.236 192.205 55.195 160.83-31.728 336.32-194.026 391.241-161.906 54.785-338.864-31.453-394.041-192.245-16.030-46.701-20.708-95.261-13.427-143.958 2.975-18.222-9.669-35.172-28.439-37.599-18.477-2.956-35.192 9.532-37.972 27.813-8.808 58.405-2.877 119.198 16.324 175.157 67.193 195.768 282.162 300.775 479.3 234.071 197.294-66.783 303.026-280.283 235.833-475.991zM396.832 471.721c-4.365 15.971-1.997 33.547 2.525 50.713 17.557 66.45 86.512 106.124 153.843 89.018 67.702-17.224 107.787-84.672 90.25-151.083-17.616-66.763-86.042-106.633-153.744-89.428-25.993 6.616-47.797 20.786-64.14 39.44-29.516-18.438-116.438-64.219-179.698-135.679-75.316-118.318-70.443-309.642-70.443-309.642-5.422-43.746-22.978-42.218-37.952-40.907-10.569 0.92-20.493 5.852-22.607 20.356-6.89 39.244-6.654 258.636 96.455 381.573 45.84 55.156 145.465 114.971 185.512 145.642z"  horiz-adv-x="1024" />

    
    <glyph glyph-name="zhidemai1" unicode="&#59024;" d="M778.003692 128.748308 778.003692 526.414769l-18.825846 0-16.108308 0-131.662769 0L611.406769 593.565538l204.248615 0L815.655385 625.821538l-204.248615 0L611.406769 695.689846l-34.934154 0L576.472615 625.821538 385.693538 625.821538l0-32.256 190.779077 0 0-67.190154-126.306462 0-16.108308 0-18.825846 0 0-397.666462L353.476923 128.708923 353.476923 96.492308l478.247385 0 0 32.216615L778.003692 128.708923zM450.205538 397.430154l292.864 0 0-69.828923-292.864 0L450.205538 397.430154zM743.069538 297.984l0-69.789538-292.864 0 0 69.789538L743.069538 297.984zM743.069538 496.836923l0-69.828923-292.864 0 0 69.828923L743.069538 496.836923zM450.205538 198.577231l292.864 0 0-69.828923-292.864 0L450.205538 198.577231zM361.511385 679.581538 329.294769 693.011692c-32.256-116.499692-77.942154-220.356923-137.019077-311.689846 5.395692-10.752 10.752-23.315692 16.147692-37.651692 25.718154 36.667077 49.860923 78.887385 72.546462 126.070154l0-397.469538 32.216615 0L313.186462 486.124308 288.768 486.124308C315.116308 543.271385 339.456 607.704615 361.511385 679.581538zM512-125.991385C230.754462-125.991385 2.008615 102.793846 2.008615 384 2.008615 665.245538 230.754462 893.991385 512 893.991385c281.206154 0 509.991385-228.785231 509.991385-509.991385C1021.991385 102.793846 793.206154-125.991385 512-125.991385zM512 849.644308C255.251692 849.644308 46.355692 640.748308 46.355692 384c0-256.787692 208.896-465.644308 465.644308-465.644308 256.787692 0 465.644308 208.896 465.644308 465.644308C977.644308 640.748308 768.787692 849.644308 512 849.644308z"  horiz-adv-x="1024" />

    
    <glyph glyph-name="shuidi" unicode="&#58928;" d="M527.36 578.56c0 0-250.88-214.72256-250.88-353.28s112.32256-250.88 250.88-250.88c138.56256 0 250.88 112.32256 250.88 250.88S527.36 578.56 527.36 578.56zM209.92 788.48c0 0-153.6-131.01568-153.6-215.56224S125.09184 419.84 209.92 419.84s153.6 68.53632 153.6 153.07776S209.92 788.48 209.92 788.48zM739.84 788.48c0 0-74.24-61.87008-74.24-101.79072C665.6 646.76352 698.83904 614.4 739.84 614.4S814.08 646.76352 814.08 686.68928C814.08 726.60992 739.84 788.48 739.84 788.48zM875.52 578.56c0 0-97.28-81.88416-97.28-134.72256S821.79072 348.16 875.52 348.16c53.72416 0 97.28 42.83392 97.28 95.67744S875.52 578.56 875.52 578.56z"  horiz-adv-x="1024" />

    
    <glyph glyph-name="meizhuanghuliicon1600051" unicode="&#58987;" d="M637.534208 432.7424l-29.32736 0c-10.641408 0-20.84864-9.289728-21.839872-19.898368l-1.998848-21.692416 77.0048 0-2.015232 21.692416C658.39104 423.436288 648.183808 432.7424 637.534208 432.7424zM663.085056 372.793344l-80.44544 0-19.628032-211.337216c-0.442368-4.513792 0.876544-8.708096 3.653632-11.771904 2.78528-3.063808 6.823936-4.75136 11.362304-4.75136l89.554944 0c4.530176 0 8.568832 1.687552 11.362304 4.75136s4.112384 7.258112 3.670016 11.771904L663.085056 372.793344zM623.804416 623.812608c-47.546368 0-92.32384-15.007744-127.787008-42.55744l75.743232-107.782144 20.774912-0.851968-6.897664 45.38368c-0.77824 5.005312 2.678784 9.674752 7.684096 10.436608 4.947968 0.679936 9.699328-2.678784 10.4448-7.684096l7.430144-48.922624 21.020672-0.851968 6.029312 49.668096c0.606208 5.029888 5.218304 8.658944 10.223616 8.011776 5.046272-0.622592 8.609792-5.193728 8.003584-10.215424l-5.849088-48.185344 21.676032-0.876544 75.276288 115.441664c-33.34144 24.018944-74.522624 37.732352-117.59616 38.912L623.804416 623.812608zM512 875.52c-271.458304 0-491.52-220.061696-491.52-491.52s220.061696-491.52 491.52-491.52 491.52 220.061696 491.52 491.52S783.458304 875.52 512 875.52zM450.461696 180.79744c0-40.484864-32.940032-73.416704-73.416704-73.416704l-70.156288 0c-40.484864 0-73.416704 32.93184-73.416704 73.416704L233.472 396.869632c0 23.568384 11.362304 44.35968 28.688384 57.79456L262.160384 546.889728c-0.032768 8.773632 0.950272 86.663168 42.909696 109.3632 7.471104 3.989504 23.035904 8.880128 43.54048-3.743744 32.661504-20.135936 68.083712-82.419712 66.543616-135.602176 0.237568-37.453824 0.704512-52.330496 1.015808-58.146816 20.537344-13.033472 34.291712-35.823616 34.291712-61.89056L450.461696 180.79744zM787.562496 578.854912 697.409536 440.614912c-1.712128-2.605056-3.997696-4.677632-6.627328-6.111232 2.637824-5.709824 4.54656-11.821056 5.152768-18.259968l23.257088-251.396096c1.376256-14.917632-3.284992-29.089792-13.123584-39.878656-9.822208-10.788864-23.51104-16.719872-38.486016-16.719872L578.02752 108.249088c-14.999552 0-28.663808 5.955584-38.494208 16.736256-9.814016 10.788864-14.467072 24.961024-13.090816 39.878656l23.379968 251.41248c0.745472 7.929856 3.31776 15.376384 7.053312 22.1184-3.899392 1.18784-7.479296 3.186688-9.887744 6.586368L456.359936 573.882368c-5.300224 7.544832-4.210688 17.850368 2.58048 24.068096 45.572096 41.918464 107.134976 64.372736 172.064768 62.513152 57.081856-1.55648 111.427584-22.020096 153.083904-57.606144C791.10144 596.836352 792.584192 586.571776 787.562496 578.854912z"  horiz-adv-x="1024" />

    
    <glyph glyph-name="shouji1" unicode="&#58919;" d="M720.129736-63.855074l-416.260495 0c-61.306274 0-111.005186 50.116421-111.005186 111.964024L192.864054 719.89105c0 61.847603 49.697889 111.964024 111.005186 111.964024l416.260495 0c61.306274 0 111.005186-50.116421 111.005186-111.964024l0-671.7821C831.133899-13.739676 781.43601-63.855074 720.129736-63.855074L720.129736-63.855074zM775.623631 719.89105c0 30.905894-24.848944 55.982012-55.493895 55.982012l-416.260495 0c-30.644951 0-55.502082-25.076118-55.502082-55.982012l0-27.991518 527.256472 0L775.623631 719.89105 775.623631 719.89105zM775.623631 635.918543 248.367159 635.918543 248.367159 188.933279l527.256472 0L775.623631 635.918543 775.623631 635.918543zM775.623631 132.951267 248.367159 132.951267l0-84.842317c0-30.925337 24.857131-55.982012 55.502082-55.982012l416.260495 0c30.644951 0 55.493895 25.056676 55.493895 55.982012L775.623631 132.951267 775.623631 132.951267zM512.001535 20.117432c-22.980387 0-41.614793 18.797112-41.614793 41.98523 0 23.190165 18.634406 41.989323 41.614793 41.989323 22.979364 0 41.612747-18.797112 41.612747-41.989323C553.614282 38.914544 534.980899 20.117432 512.001535 20.117432L512.001535 20.117432z"  horiz-adv-x="1024" />

    
    <glyph glyph-name="iconbottom02" unicode="&#58893;" d="M949.76 744.96c-12.8 12.8-30.72 17.92-48.64 17.92-2.56 0-2.56 0-5.12 0 0 0-12.8 0-30.72 0-30.72 0-87.04 2.56-140.8 15.36C655.36 793.6 573.44 870.4 550.4 885.76 537.6 890.88 524.8 896 509.44 896c-12.8 0-25.6-5.12-38.4-10.24-2.56-2.56-87.04-87.04-171.52-107.52-53.76-12.8-112.64-15.36-143.36-15.36-17.92 0-30.72 0-30.72 0 0 0-2.56 0-5.12 0-17.92 0-35.84-5.12-48.64-17.92C58.88 732.16 51.2 714.24 51.2 696.32l0-168.96C51.2-89.6 481.28-122.88 499.2-128c5.12 0 7.68 0 12.8 0 5.12 0 7.68 0 12.8 0C542.72-122.88 972.8-89.6 972.8 529.92L972.8 696.32C972.8 714.24 962.56 732.16 949.76 744.96L949.76 744.96 949.76 744.96zM791.04 504.32l-296.96-281.6c-2.56-2.56-5.12-5.12-7.68-7.68-7.68-7.68-20.48-12.8-30.72-12.8-10.24 0-23.04 5.12-33.28 12.8-2.56 2.56-5.12 5.12-5.12 7.68l-158.72 151.04c-15.36 15.36-15.36 40.96 0 58.88 15.36 15.36 43.52 15.36 61.44 0l135.68-128L729.6 563.2c17.92 15.36 43.52 15.36 61.44 0C808.96 547.84 808.96 522.24 791.04 504.32L791.04 504.32 791.04 504.32z"  horiz-adv-x="1024" />

    
    <glyph glyph-name="baoyou-copy" unicode="&#58880;" d="M389.749 157.767c0-11.276-9.135-20.412-20.375-20.412v0c-11.237 0-20.374 9.135-20.374 20.412v511.484c0 11.241 9.135 20.374 20.374 20.374v0c11.239 0 20.375-9.134 20.375-20.374v-511.484zM757.995 648.503c43.028 3.327 57.087-17.354 42.143-62.009-6.587-28.153-17.354-66.185-32.225-114.138-8.285-28.115-12.395-43.023-12.395-44.618-1.663-3.362 1.628-11.613 9.919-24.79 36.365-61.228 53.718-121.572 52.091-181.136 1.628-54.573-38.882-81.839-121.541-81.839-18.197 1.628-27.302 9.913-27.302 24.79 3.296 16.502 14.027 24.788 32.229 24.788 49.609-4.959 71.957 9.919 66.999 44.625-1.663 46.282-19.052 96.814-52.092 151.35-6.623 9.919-12.394 20.65-17.354 32.262-1.699 1.627 0.783 10.731 7.437 27.303 18.203 44.618 32.225 87.648 42.178 129.008 3.291 19.83-2.482 28.933-17.391 27.303h-102.555c-9.949-1.663-14.909-9.136-14.909-22.314v-488.796c0-21.971-40.749-21.971-40.749 0v511.077c-0.783 39.423 28.866 48.594 65.811 47.133h119.703zM491.252 584.154h-243.69c-22.447 0-40.614-18.169-40.614-40.614v-365.531c0-22.447 18.166-40.614 40.614-40.614h243.69c22.447 0 40.615 18.166 40.615 40.614v365.494c-0.001 22.446-18.17 40.651-40.615 40.651v0zM491.319 198.278c0-11.202-9.103-20.306-20.307-20.306h-203.075c-11.239 0-20.338 9.103-20.338 20.306l-0.001 324.954c0 11.202 9.099 20.308 20.338 20.308h203.039c11.207 0 20.308-9.104 20.308-20.308l-0.001-324.955h0.036zM438.649 360.739c0-11.239-9.099-20.343-20.307-20.343h-162.457c-11.239 0-20.308 9.103-20.308 20.343v0c0 11.202 9.068 20.306 20.308 20.306h162.457c11.209 0 20.307-9.067 20.307-20.307v0 0zM512-125.38c-280.871 0-509.378 228.507-509.378 509.378s228.507 509.378 509.378 509.378c99.872 0 196.587-28.898 279.681-83.57 11.207-7.405 14.301-22.415 6.963-33.587-7.369-11.172-22.412-14.333-33.619-6.959-75.149 49.473-162.662 75.589-253.026 75.589-254.115 0-460.884-206.739-460.884-460.852s206.769-460.852 460.884-460.852 460.883 206.739 460.883 460.852c0 73.045-16.639 142.931-49.37 207.655-6.083 11.99-1.222 26.556 10.694 32.603 11.954 6.146 26.519 1.253 32.597-10.663 36.205-71.621 54.574-148.874 54.574-229.595 0-280.871-228.507-509.378-509.378-509.378v0zM512-125.38z"  horiz-adv-x="1024" />

    
    <glyph glyph-name="fangdajing1" unicode="&#59180;" d="M949.31456-8.35072l-197.95968 175.616a405.20704 405.20704 0 0 1 59.35104 101.62176c20.08064 49.67424 30.2592 102.42048 30.2592 156.75904s-10.17856 107.07968-30.2592 156.75904c-19.42016 48.05632-47.24224 91.22816-82.688 128.32256-35.5328 37.19168-76.9536 66.4064-123.1104 86.8352-47.90272 21.20192-98.78016 31.95392-151.22432 31.95392s-103.32672-10.752-151.22944-31.9488c-46.15168-20.4288-87.5776-49.64864-123.11552-86.8352-35.44576-37.09952-63.26272-80.27136-82.688-128.32768-20.07552-49.67936-30.2592-102.42048-30.2592-156.75904s10.18368-107.0848 30.2592-156.75904c19.42528-48.05632 47.24224-91.22816 82.688-128.32256 35.53792-37.19168 76.96384-66.4064 123.11552-86.8352 47.90272-21.20192 98.78016-31.95392 151.22944-31.95392s103.3216 10.752 151.22432 31.9488c38.33344 16.9728 73.39008 40.02304 104.53504 68.64896l199.12704-176.65536a30.58688 30.58688 0 0 1 20.36224-7.7312 30.6944 30.6944 0 0 1 20.38784 53.66272zM453.6832 83.1744c-179.69664 0-325.888 153.63072-325.888 342.47168 0 188.84096 146.19136 342.4768 325.888 342.4768 179.69152 0 325.888-153.63584 325.888-342.4768 0-188.84096-146.19648-342.4768-325.888-342.4768z"  horiz-adv-x="1024" />

    
    <glyph glyph-name="icon-43" unicode="&#58929;" d="M512.792 223.316c-81.737 0-160.975 29.14-223.117 82.051-61.373 52.256-102.726 124.605-116.439 203.719l-4.982 28.741h689.076l-4.981-28.741c-13.714-79.114-55.067-151.463-116.44-203.719-62.143-52.911-141.381-82.051-223.117-82.051zM228.057 488.731c35.121-126.959 150.541-216.319 284.735-216.319 134.195 0 249.614 89.359 284.735 216.319h-569.47zM482.667 399.389h-167.301c-16.57 0-30.125 13.558-30.125 30.125 0 16.57 13.555 30.128 30.125 30.128h167.301c16.57 0 30.125-13.558 30.125-30.128 0-16.567-13.555-30.125-30.125-30.125z"  horiz-adv-x="1024" />

    
    <glyph glyph-name="icon-45" unicode="&#58930;" d="M332.729 174.984c-34.231 0-64.47 15.038-85.146 42.345-17 22.451-26.75 51.918-26.75 80.844 0 30.125 17.299 80.663 133.158 80.663 34.542 0 67.227-9.957 92.033-28.037 26.519-19.328 41.124-45.569 41.124-73.888-0.001-58.337-81.526-101.927-154.419-101.927zM353.991 342.885c-36.304 0-97.206-5.809-97.206-44.712 0-33.729 20.618-87.237 75.944-87.237 57.573 0 118.466 33.913 118.466 65.976 0 16.528-9.357 32.45-26.347 44.834-18.703 13.631-43.868 21.139-70.857 21.139zM690.486 174.984c-72.894 0-154.419 43.59-154.419 101.927 0 28.318 14.604 54.56 41.123 73.888 24.806 18.080 57.49 28.037 92.032 28.037 115.859 0 133.158-50.538 133.158-80.663 0-28.927-9.749-58.393-26.749-80.844-20.675-27.307-50.913-42.345-85.145-42.345zM669.223 342.885c-26.989 0-52.153-7.508-70.856-21.14-16.99-12.384-26.348-28.306-26.348-44.834 0-32.063 60.895-65.976 118.468-65.976 55.325 0 75.943 53.509 75.943 87.237 0 38.904-60.904 44.713-97.207 44.713zM465 316h90v-36h-90zM306.305 554.874l33.938-11.86-80.738-231.031-33.939 11.86zM370.772 594.117l16.681-31.846-55.811-29.235-16.682 31.846zM715.479 555.114l81.63-223.26-33.765-12.346-81.631 223.26zM651.117 594.117l55.813-29.235-16.682-31.847-55.813 29.236z"  horiz-adv-x="1024" />

    
    <glyph glyph-name="huli" unicode="&#59151;" d="M829.568 532.87936c0 15.67744-20.67968 41.68704-36.3008 41.68704-15.55968 0-36.3008-26.06592-36.3008-41.68704v-28.29312h72.64768v28.29312h-0.04608zM879.43168 488.9088v43.96544c0 46.80704-37.85728 84.82816-84.77184 84.82816-46.80704 0-84.82304-38.02112-84.82304-84.82816v-43.96544c-33.63328-19.56864-56.53504-55.64416-56.53504-97.38752v-339.18976c0-62.42816 50.52928-113.06496 113.00864-113.06496h56.58624c62.5408 0 113.1264 50.6368 113.1264 113.06496V391.52128c-0.00512 41.74848-23.01952 77.81888-56.59136 97.38752z m-59.20256-408.28928c0-15.62112-9.89696-28.288-25.56928-28.288-15.62112 0-25.56928 12.672-25.56928 28.288v56.47872c0 15.55968 9.94816 28.34944 25.56928 28.34944 15.67744 0 25.56928-12.72832 25.56928-28.34944v-56.47872zM342.4 680.9088c-15.67232 0-35.85024-8.7296-36.352-34.96448-0.2816-15.56992 11.008-34.9696 36.352-34.9696 22.29248-0.05632 33.63328 19.39968 33.63328 34.91328 0 15.67744-13.23008 38.35392-33.63328 35.0208zM413.16352 611.97824c4.61824 10.44992 7.34208 21.84704 7.34208 33.96096 0 36.79744-23.79264 67.36896-56.52992 79.1552V787.3024l41.96352 1.55136 1.83296 0.16896c11.22816 3.72224 19.4048 7.28064 19.4048 19.7888 0 15.616-11.28448 20.22912-26.9056 20.22912H287.15008c-6.89664 0-12.9536-2.72384-17.95584-6.94272-38.5792-8.95488-73.20576-27.41248-103.1168-51.58912-10.78272-4.00384-19.84512-6.11328-19.84512-18.28864 0-15.62112 12.6208-21.56544 28.24192-21.56544 6.05696 0 11.28448 2.33472 15.8976 5.56032l0.44032-0.55808c33.0752 29.85472 87.94112 48.64 135.35744 50.69312V725.0944c-31.68256-6.72768-61.9264-42.35776-61.9264-79.1552 0-12.17536 2.78016-23.57248 7.39328-33.96096-101.16608-22.51264-183.6544-112.45056-183.6544-220.45696v-339.18976c0-62.42816 50.6368-113.06496 113.06496-113.06496h282.65984c62.37184 0 113.06496 50.6368 113.12128 113.11616V391.57248c-0.00512 107.95008-82.49344 197.95456-183.66464 220.40576z m-2.22208-508.40064H272.47616c-15.67744 0-28.29312 18.01216-28.29312 33.52064a28.3136 28.3136 0 0 0 28.29312 28.34944h126.40256c15.62112 0 40.35584-12.78464 40.35584-28.34944s-12.6208-33.52064-28.29312-33.52064z m2.6112 118.34368H271.08352c-15.62112 0-28.2368 12.68224-28.2368 28.35456a28.24192 28.24192 0 0 0 28.2368 28.2368h127.744c15.62112 0 43.02336-12.67712 43.02336-28.2368a28.288 28.288 0 0 0-28.29824-28.35456z"  horiz-adv-x="1024" />

    
    <glyph glyph-name="mima" unicode="&#58942;" d="M760.468-64.75H264.067c-60.878 0-110.334 52.256-110.334 116.596V401.361c0 64.249 49.457 116.503 110.334 116.503h28.624c-2.932 14.533-4.507 29.5-4.507 44.819V607.5c0 123.772 100.313 224.083 224.084 224.083 123.727 0 224.086-100.311 224.086-224.083v-44.816c0-15.319-1.577-30.286-4.509-44.819h28.623c60.834 0 110.334-52.254 110.334-116.503v-349.516c0-64.34-49.5-116.596-110.334-116.596zM467.451 216.402v-101.889c0-24.682 20.091-44.816 44.817-44.816s44.816 20.135 44.816 44.816V216.402c27.177 15.406 45.689 44.117 45.689 77.381 0 49.545-40.525 89.633-90.506 89.633-50.025 0-90.553-40.088-90.553-89.633 0.001-33.263 18.557-61.974 45.737-77.381zM646.716 607.5c0 74.272-60.173 134.451-134.448 134.451-74.27 0-134.452-60.179-134.452-134.451v-89.635h268.9V607.5z"  horiz-adv-x="1024" />

    
    <glyph glyph-name="drops" unicode="&#59128;" d="M521.456 824.51c-1.242 9.993-17.67 9.993-18.912 0-41.152-331.725-251.549-400.06-251.549-630.581C250.995 51.472999999999956 370.475-64 512.027-64c141.498 0 260.978 115.473 260.978 257.929 0 230.52-210.396 298.856-251.549 630.581z m44.456-827.868c-14.82 0-26.758 11.968-26.758 26.76 0 14.79 11.994 26.758 26.758 26.758 36.863 0 66.84 29.865 66.84 66.642 0 14.792 11.966 26.758 26.758 26.758a26.76 26.76 0 0 0 24.669-16.257 26.512 26.512 0 0 0 2.146-10.501c-0.001-66.276-54.026-120.16-120.413-120.16z"  horiz-adv-x="1024" />

    
    <glyph glyph-name="icon09" unicode="&#58625;" d="M956.239 395.38l0.025 0.437c1.444 25.428-4.432 49.909-17.018 71.047l-1.991 3.221c-21.862 35.378-59.976 57.88-101.957 60.194l-0.383 0.020-0.379 0.052c-2.414 0.339-4.788 0.504-7.263 0.504l-166.642 0.133 2.544 11.089c6.627 28.882 9.987 58.629 9.987 88.414 0 28.149-3.209 56.993-9.539 85.741-0.318 1.455-0.787 2.874-1.389 4.221l-0.282 0.629-0.183 0.664c-7.4 26.8-22.896 49.803-44.816 66.519-21.978 16.759-48.358 25.617-76.288 25.617-69.294 0-125.669-56.376-125.669-125.671 0-3.179 0.129-6.367 0.384-9.477l0.045-0.542-0.020-0.544c-2.351-61.247-34.498-117.867-85.994-151.462-5.1-3.326-8.599-8.438-9.852-14.395-1.254-5.956-0.114-12.044 3.215-17.143 4.224-6.479 11.37-10.347 19.112-10.347 4.408 0 8.702 1.282 12.421 3.707 64.646 42.165 104.546 113.286 106.733 190.197 0.025 1.055-0.008 2.028-0.1 2.951-0.238 2.332-0.357 4.706-0.357 7.056 0 44.162 35.926 80.088 80.085 80.087 37.487 0 69.574-25.542 78.026-62.104 0.257-1.104 0.596-2.18 1.006-3.199l0.308-0.762 0.166-0.805c4.913-23.861 7.405-47.727 7.405-70.937 0-39.249-6.517-77.867-19.371-114.783-2.42-6.947-1.322-14.679 2.937-20.681 4.264-6.005 11.21-9.595 18.571-9.604l198.772-0.257c1.019-0.189 2.048-0.304 3.103-0.342 27.582-1.141 52.661-15.727 67.096-39.022 9.011-14.177 13.162-30.844 12.006-48.203l-0.013-0.168c-0.060-0.713-0.087-1.411-0.080-2.166 0-0.567 0.027-1.167 0.082-1.831l0.018-0.223 0.007-0.223c0.040-1.185-0.091-2.38-0.419-3.652-0.077-0.291-0.148-0.597-0.204-0.837l-76.887-338.827-1.061-1.486c-0.666-0.931-1.266-1.923-1.781-2.942-6.806-13.482-16.884-24.666-29.1-32.314-12.288-7.789-26.471-12.176-41.015-12.688l-0.484-0.016-0.2 0.013c-13.24 0.062-518.606 0.224-523.75 0.226h-0.187l-0.185 0.007c-0.351 0.014-0.703 0.024-1.042 0.024-42.881-0.067-107.621-0.234-114.022-0.427l-0.234-0.039h-0.748c-6.94 0-12.586 5.632-12.586 12.562l0.306 424.712c0 6.778 5.53 12.548 12.077 12.597l0.479 0.003 1.878-0.185c1.088-0.123 1.609-0.16 1.86-0.167l0.245 0.026 95.063 0.253v-355.296c0-12.567 10.225-22.792 22.792-22.792s22.79 10.225 22.79 22.791v378.772c0 12.605-10.011 22.479-22.79 22.479-0.716 0-120.799-0.311-121.807-0.31-32.076 0-58.17-26.086-58.17-58.157l-0.305-424.712c0-32.069 26.094-58.16 58.169-58.16 2.546 0 112.5 0.46 113.612 0.466l0.211 0.001 0.21-0.009c0.341-0.013 0.689-0.023 1.034-0.023 5.216-0.003 521.62-0.279 522.821-0.279 24.266 0 47.861 6.825 68.277 19.764 18.618 11.659 34.030 28.438 44.567 48.522l0.197 0.377 0.232 0.356c3.217 4.944 5.662 10.463 7.264 16.399 0.078 0.293 0.148 0.577 0.224 0.916l76.449 337.243c1.397 5.437 1.989 11.075 1.766 16.762l-0.017 0.437zM468.579 314.765v31.084c0 12.567-10.225 22.792-22.792 22.792s-22.792-10.225-22.792-22.792v-31.084c0-12.567 10.225-22.792 22.792-22.792s22.792 10.225 22.792 22.792zM717.265 314.765v31.084c0 12.567-10.225 22.792-22.792 22.792s-22.791-10.225-22.791-22.792v-31.084c0-12.567 10.225-22.792 22.791-22.792 12.567 0 22.792 10.225 22.792 22.792zM569.817 149.669c40.925 0 69.97 28.295 80.68 45.015 6.742 10.525 3.763 24.21-6.77 31.149-3.691 2.425-7.979 3.707-12.401 3.706-7.69 0-14.842-3.792-19.156-10.178-0.671-0.984-16.75-24.11-42.353-24.11-24.974 0-39.877 21.376-41.494 23.813l-0.097 0.149c-4.204 6.614-11.401 10.561-19.252 10.561-4.231 0-8.385-1.188-12.001-3.429-10.677-6.638-13.971-20.722-7.343-31.393 10.452-16.819 39.102-45.284 80.188-45.284z"  horiz-adv-x="1024" />

    
    <glyph glyph-name="yanjing" unicode="&#58891;" d="M987.072 386.944H992v48h-17.008c-21.632 65.904-62.752 126.448-118.192 165.728-39.856 28.272-83.472 43.216-126.144 43.216l-0.928-0.032c-0.16 0-0.304 0.048-0.432 0.048H297.12c-0.464 0-0.912-0.112-1.376-0.144-0.976 0.016-1.904 0.112-2.88 0.112-40.272 0-81.648-13.216-119.664-38.24-59.088-38.88-102.72-101.84-124.88-170.688h-14.048v-48h2.336c-7.952-47.232-5.744-95.248 8.976-138.672 27.776-81.936 94.4-132.832 173.888-132.832 40.304 0 81.728 13.232 119.76 38.288 76.72 50.416 127.68 141.344 138.912 233.232h70.016c11.024-89.808 59.2-179.296 132.736-231.456 39.84-28.192 83.44-43.088 126.064-43.088 77.344 0 140.784 47.184 169.68 126.256 16.72 45.808 19.44 97.488 10.432 148.272zM610.8 595.888c-21.168-20.416-38.24-46.752-49.728-78.256-9.52-26.064-14.272-54.08-15.136-82.688h-65.712c-0.896 26.144-5.152 51.808-13.36 76.032-11.6 34.24-30.048 62.96-53.328 84.912h197.264z"  horiz-adv-x="1024" />

    
    <glyph glyph-name="qihangyanjing" unicode="&#58882;" d="M422.4 209.6C324.2 192 63.6 261 63.6 444.1c0 92.8 148.5 126.5 205.4 118.7 54.3-7.4 63.3-47.3 17.1-47.3-40.2 0-99.1-1.3-102.7-2.2-35.7-9.1-40.1-37.2-40.1-37.2h740.5s0 29-39.4 37.2c-22.3 4.6-109.4 0-127.3 2.2-17.9 2.2-4.5 35.7 60.3 47.3 25.2 4.5 183.1 0.3 183.1-118.7 0-52.5-99-282.8-371.3-235.1-25.3 4.4-37.2 34.9-37.2 64v89.9c0 9.2 1.1 42.5-36.5 42.5-35.3 0-40.9-26-40.9-45v-84.5c-0.2-39.3-27.7-62-52.2-66.3z"  horiz-adv-x="1024" />

    
    <glyph glyph-name="huli1" unicode="&#59028;" d="M576.637484 592.115683c4.218433 9.545887 6.706505 19.956051 6.706504 31.021874 0 33.613803-21.734277 61.541618-51.638099 72.308511v56.825571l38.33256 1.416982 1.675272 0.154432c10.256635 3.400214 17.726269 6.651415 17.726269 18.076676 0 14.265546-10.309016 18.480367-24.578175 18.480367H461.525108c-6.299201 0-11.833468-2.488975-16.403211-6.343454-35.24121-8.180382-66.871781-25.040568-94.195414-47.126155-9.849332-3.657601-18.128154-5.58484-18.128154-16.706657 0-14.270062 11.528216-19.699567 25.798278-19.699567 5.533363 0 10.309016 2.133149 14.52203 5.079098l0.402788-0.509355c30.213589 27.271253 80.333559 44.432174 123.647681 46.307034v-55.955875c-28.942009-6.146576-56.569087-38.694708-56.569087-72.308511 0-11.121816 2.539549-21.532883 6.752563-31.021874-92.414479-20.566554-167.766475-102.723494-167.766475-201.385698v-309.846658c0-57.026965 46.256459-103.283423 103.284327-103.283423h258.206752c56.975487 0 103.28252 46.256459 103.334901 103.330385V390.776947c-0.004516 98.610726-75.356512 180.82998-167.774603 201.338736z m-2.031098-464.41958H448.120227c-14.321539 0-25.846143 16.453785-25.846143 30.620893a25.866915 25.866915 0 0 0 25.846143 25.895814h115.467298c14.270062 0 36.865004-11.679036 36.865004-25.895814 0-14.217682-11.529119-30.620893-25.846143-30.620893z m2.38602 108.106038H446.848646c-14.270062 0-25.794666 11.585112-25.794666 25.902136 0.003612 14.244775 11.549891 25.791053 25.794666 25.793762H563.541466c14.270062 0 39.301599-11.580597 39.301599-25.793762a25.838015 25.838015 0 0 0-7.550914-18.315098 25.835306 25.835306 0 0 0-18.299745-7.587038z"  horiz-adv-x="1024" />

    
    <glyph glyph-name="wujiaoxing1" unicode="&#58980;" d="M539.234043 772.085106l96.680851-296.851063h311.829787l-251.914894-182.468086 95.319149-296.851063-251.914893 183.829787-251.914894-183.829787 95.319149 296.851063-251.914894 182.468086h311.829787l96.680852 296.851063"  horiz-adv-x="1078" />

    
    <glyph glyph-name="arrow-right" unicode="&#58626;" d="M422.28038263951584 541.5608743226153l27.674304223235247 28.645867253263013 193.72062124434203-192.74954989600968-193.72062124434203-192.74954989600968-27.674304223235247 28.645867253263013 163.13310297610963 164.10417432444203z"  horiz-adv-x="1024" />

    
    <glyph glyph-name="xingzhuang60kaobei2" unicode="&#58637;" d="M1077.529145 507.793752C1072.06379 524.466544 1056.511742 535.673981 1039.008769 535.673981L686.956883 535.673981 578.161726 868.175116C572.876243 884.792563 557.37954 896 539.765877 896 522.262904 896 506.710856 884.792563 501.370028 868.299643L392.450343 535.673981 40.467639 535.673981C22.909321 535.673981 7.398781 524.466544 2.002608 507.793752-3.462747 491.286996 2.528389 473.036861 16.682967 462.880986L301.504067 257.46665199999995 192.764255-75.21435499999995C187.243555-91.77645700000005 193.234691-109.86055599999997 207.444614-120.12712099999999 221.474665-130.338342 240.845544-130.338342 254.944776-120.12712099999999L539.765877 85.41173900000001 824.642322-120.12712099999999C831.629675-125.19122300000004 839.972989-127.82012799999995 848.371649-127.82012799999995 856.701127-127.82012799999995 865.099787-125.19122300000004 872.142485-120.12712099999999 886.297062-109.86055599999997 892.288199-91.77645700000005 886.767498-75.21435499999995L778.138377 257.46665199999995 1062.793441 462.880986C1076.934183 473.036861 1082.869974 491.286996 1077.529145 507.793752Z"  horiz-adv-x="1080" />

    
    <glyph glyph-name="f111" unicode="&#58666;" d="M614.8177919999999 291.170304l-206.14451200000002 7.105427357601002e-14c-11.408384 5.329070518200751e-15-20.635647999999996 9.155584000000005-20.635647999999993 20.56294400000001 1.3322676295501878e-15 5.305344 2.034688000000002 10.100735999999998 5.305344000000004 13.733887999999997l101.94534400000006 136.02508799999995c6.831104000000002 9.009151999999997 19.691520000000008 10.899455999999994 28.775424 4.069375999999988 1.5994879999999996-1.1632640000000007 2.9788159999999992-2.5436160000000005 4.069375999999999-4.069376000000002L631.23968 324.0140799999999c6.757375999999997-9.010176000000001 4.939775999999991-21.943296-4.142080000000009-28.701695999999995C623.3907200000001 292.47795199999996 619.104256 291.170304 614.8177919999999 291.170304L614.8177919999999 291.170304z"  horiz-adv-x="1024" />

    
    <glyph glyph-name="f11-copy" unicode="&#58669;" d="M328.20792302595464 549.9378430603648l368.4938888522427 0c20.393071563698495 0 36.887279252459585-16.366076012119944 36.887279252459585-36.757317123294996 0-9.4835745239675-3.6371091640848143-18.055583691259486-9.4835745239675-24.550029244441628l-182.23253142407032-243.15182185683665c-12.210948783900248-16.104321301267337-35.199602025843475-19.483336659546435-51.43754636132228-7.274218328169629-2.859166841620776 2.0793940666332906-5.324786390700918 4.546844068236879-7.274218328169629 7.274218328169629L298.85295590747035 491.2279088233963c-12.079156202212225 16.10615175379078-8.830102973097707 39.22476712489858 7.404180457334207 51.305753779634244C312.8833744996749 547.6003551879257 320.5456487628147 549.9378430603648 328.20792302595464 549.9378430603648L328.20792302595464 549.9378430603648z"  horiz-adv-x="1024" />

    
    <glyph glyph-name="f112" unicode="&#58632;" d="M370.02499547102286 512.1830338276819l284.652757616345 0c15.753162352176458 0 28.49454516839243-12.642404146020084 28.49454516839243-28.394152517193746 0-7.325835575498272-2.809580252560329-13.94750861160296-7.325835575498272-18.964313209531518l-140.7702927145929-187.82899446872491c-9.432667269667817-12.440204862619918-27.190854683812347-15.05041379378568-39.73428015963655-5.619160505120658-2.208638326371029 1.6062824191789298-4.113270737140412 3.5123288109511113-5.619160505120658 5.619160505120658L347.3489821291456 466.8310071439276c-9.330860637466337 12.441618843622715-6.82104435749926 30.30019890896592 5.71955315631934 39.63247352743506C358.18714651559515 510.37738008710846 364.10607099330895 512.1830338276819 370.02499547102286 512.1830338276819L370.02499547102286 512.1830338276819z"  horiz-adv-x="1024" />

    
    <glyph glyph-name="arrow-bottom" unicode="&#58638;" d="M758.5548485517502 516.1477442979814l42.19240844249725-40.76139628887176-283.9002102613448-285.3304982185364-283.900210261345 285.3304982185362 42.192408442497246 40.761396288871765 241.70852601528168-240.2782380580902z"  horiz-adv-x="1024" />

    
    <glyph glyph-name="gouwuche1" unicode="&#58627;" d="M347.136 112.63999999999999q19.456 0 36.864-7.168t30.72-19.968 20.48-30.208 7.168-36.864-7.168-36.864-20.48-30.208-30.72-20.48-36.864-7.68q-20.48 0-37.376 7.68t-30.208 20.48-20.48 30.208-7.168 36.864 7.168 36.864 20.48 30.208 30.208 19.968 37.376 7.168zM773.12 110.59199999999998q19.456 0 37.376-7.168t30.72-19.968 20.48-30.208 7.68-36.864-7.68-36.864-20.48-30.208-30.72-20.48-37.376-7.68-36.864 7.68-30.208 20.48-20.48 30.208-7.68 36.864 7.68 36.864 20.48 30.208 30.208 19.968 36.864 7.168zM945.152 692.2239999999999q28.672 0 44.544-7.68t22.528-18.944 6.144-24.064-3.584-22.016-12.8-37.888-22.016-62.976-24.064-68.096-17.92-53.248q-13.312-40.96-33.792-56.832t-50.176-15.872l-34.816 0-66.56 0-87.04 0-95.232 0-253.952 0 15.36-92.16 516.096 0q49.152 0 49.152-41.984 0-20.48-9.728-35.328t-38.4-14.848l-49.152 0-95.232 0-117.76 0-119.808 0-98.304 0-56.32 0q-20.48 0-34.304 9.216t-23.04 24.064-14.848 32.256-8.704 32.768q-1.024 6.144-5.632 29.696t-11.264 58.88-14.848 78.848-16.384 87.552q-19.456 103.424-44.032 230.4l-76.8 0q-15.36 0-25.6 7.68t-16.896 18.432-9.216 23.04-2.56 22.528q0 20.48 13.824 33.792t37.376 13.312l22.528 0 20.48 0 25.6 0 34.816 0q20.48 0 32.768-6.144t19.456-15.36 10.24-19.456 5.12-17.408q2.048-8.192 4.096-23.04t4.096-30.208q3.072-18.432 6.144-38.912l700.416 0z"  horiz-adv-x="1024" />

    
    <glyph glyph-name="fenxiang" unicode="&#58917;" d="M972.8 346.0864v-294.7584A128.0768 128.0768 0 0 0 844.8-76.8H179.2a128 128 0 0 0-128 128V716.8c0 70.7328 57.1904 128 127.872 128h202.3168a25.6 25.6 0 0 1 0 51.2H179.072A179.072 179.072 0 0 1 0 716.8v-665.6a179.2 179.2 0 0 1 179.2-179.2h665.6c98.944 0 179.2 80.2816 179.2 179.328V346.0864a25.6 25.6 0 0 1-51.2 0zM960 768c-353.4592 0-640-286.5408-640-640a25.6 25.6 0 0 1 51.2 0c0 325.1968 263.6032 588.8 588.8 588.8a25.6 25.6 0 0 1 0 51.2zM720.1024 833.8432l256-102.4a25.6 25.6 0 0 1 18.9952 47.5136l-256 102.4a25.6 25.6 0 0 1-18.9952-47.5136zM808.8064 547.5328l194.6368 189.312a25.6 25.6 0 1 1-35.6864 36.7104L773.12 584.2432a25.6 25.6 0 1 1 35.6864-36.7104z"  horiz-adv-x="1024" />

    
    <glyph glyph-name="fanhui" unicode="&#58918;" d="M710.153924 887.019603L266.007127 435.307476a81.118646 81.118646 0 0 1 0.861532-114.476097l446.192936-441.050666a26.922883 26.922883 0 0 1 37.853573 38.284339L304.722232 359.115718a27.27288 27.27288 0 0 0-0.323074 38.445877L748.545955 849.273722A26.922883 26.922883 0 1 1 710.180847 886.99268z"  horiz-adv-x="1024" />

    
    <glyph glyph-name="guanbi" unicode="&#58920;" d="M512 439.689846L94.247385 857.442462a39.542154 39.542154 0 0 1-55.689847 0 39.266462 39.266462 0 0 1 0-55.689847L456.310154 384 38.557538-33.752615a39.542154 39.542154 0 0 1 0-55.689847 39.266462 39.266462 0 0 1 55.689847 0L512 328.310154l417.752615-417.752616c15.163077-15.163077 40.290462-15.36 55.689847 0a39.266462 39.266462 0 0 1 0 55.689847L567.689846 384 985.442462 801.752615a39.542154 39.542154 0 0 1 0 55.689847 39.266462 39.266462 0 0 1-55.689847 0L512 439.689846z"  horiz-adv-x="1024" />

    
    <glyph glyph-name="kefu" unicode="&#58921;" d="M55.351351 342.597189v-110.924108a83.027027 83.027027 0 0 1 166.054054 0v110.924108a83.027027 83.027027 0 0 1-166.054054 0z m763.101406-211.552865A137.852541 137.852541 0 0 0 774.918919 231.673081v110.924108A138.378378 138.378378 0 0 0 912.328649 480.864865C898.131027 681.928649 730.499459 840.648649 525.837838 840.648649 321.148541 840.648649 153.544649 681.928649 139.347027 480.864865A138.461405 138.461405 0 0 0 276.756757 342.597189v-110.924108a138.378378 138.378378 0 0 0-276.756757 0v110.924108a138.378378 138.378378 0 0 0 83.303784 126.865297C91.883243 706.476973 286.72 896 525.837838 896s433.954595-189.523027 442.534054-426.537514A138.461405 138.461405 0 0 0 1051.675676 342.597189v-110.924108a138.378378 138.378378 0 0 0-184.790487-130.269405 470.763243 470.763243 0 0 0-188.858811-121.21946A96.809514 96.809514 0 0 0 580.912432-114.162162h-82.528864c-53.690811 0-97.113946 43.174054-97.113946 96.864865 0 53.607784 43.284757 96.864865 97.141621 96.864865h82.473514c34.954378 0 65.536-18.265946 82.639567-45.803244a415.273514 415.273514 0 0 1 154.900757 97.28zM830.27027 342.597189v-110.924108a83.027027 83.027027 0 0 1 166.054054 0v110.924108a83.027027 83.027027 0 0 1-166.054054 0zM498.438919-58.810811h82.473513c23.302919 0 41.79027 18.487351 41.790271 41.513514 0 23.053838-18.570378 41.513514-41.790271 41.513513h-82.473513c-23.302919 0-41.79027-18.487351-41.79027-41.513513 0-23.053838 18.570378-41.513514 41.79027-41.513514z"  horiz-adv-x="1051" />

    
    <glyph glyph-name="shenfenzheng" unicode="&#58923;" d="M768 167.384615v7.876923 11.815385c-11.815385 110.276923-122.092308 196.923077-256 196.923077s-244.184615-86.646154-256-192.984615v-23.63077c0-43.323077 35.446154-78.769231 78.769231-78.76923h354.461538c43.323077 0 78.769231 35.446154 78.769231 78.76923zM512-128C228.430769-128 0 100.430769 0 384S228.430769 896 512 896s512-228.430769 512-512-228.430769-512-512-512z m0 555.323077c94.523077 0 169.353846 74.830769 169.353846 169.353846S606.523077 769.969231 512 769.969231s-169.353846-78.769231-169.353846-173.292308 74.830769-169.353846 169.353846-169.353846z"  horiz-adv-x="1024" />

    
    <glyph glyph-name="zanting" unicode="&#58924;" d="M512-128C228.266667-128 0 100.266667 0 384S228.266667 896 512 896s512-228.266667 512-512-228.266667-512-512-512z m0 42.666667c260.266667 0 469.333333 209.066667 469.333333 469.333333S772.266667 853.333333 512 853.333333 42.666667 644.266667 42.666667 384s209.066667-469.333333 469.333333-469.333333z m-106.666667 682.666666c12.8 0 21.333333-8.533333 21.333334-21.333333v-384c0-12.8-8.533333-21.333333-21.333334-21.333333s-21.333333 8.533333-21.333333 21.333333V576c0 12.8 8.533333 21.333333 21.333333 21.333333z m213.333334 0c12.8 0 21.333333-8.533333 21.333333-21.333333v-384c0-12.8-8.533333-21.333333-21.333333-21.333333s-21.333333 8.533333-21.333334 21.333333V576c0 12.8 8.533333 21.333333 21.333334 21.333333z"  horiz-adv-x="1024" />

    
    <glyph glyph-name="jiantoushang" unicode="&#58925;" d="M910.222222 99.555556c-17.066667 0-34.133333 5.688889-45.511111 17.066666L551.822222 486.4c-11.377778 5.688889-17.066667 11.377778-34.133333 11.377778-5.688889 0-22.755556-5.688889-28.444445-11.377778l-329.955555-364.088889c-22.755556-22.755556-56.888889-22.755556-79.644445-5.688889-22.755556 22.755556-22.755556 56.888889-5.688888 79.644445l329.955555 364.088889c28.444444 34.133333 73.955556 51.2 119.466667 51.2s85.333333-22.755556 119.466666-56.888889l312.888889-364.088889c22.755556-22.755556 17.066667-56.888889-5.688889-79.644445-11.377778-5.688889-28.444444-11.377778-39.822222-11.377777z"  horiz-adv-x="1024" />

    
    <glyph glyph-name="saoyisao" unicode="&#58926;" d="M665.6 768a21.333333 21.333333 0 1 0 0 42.666667h123.648A149.482667 149.482667 0 0 0 938.666667 661.184v-133.504a21.333333 21.333333 0 1 0-42.666667 0v133.504A106.816 106.816 0 0 1 789.248 768h-123.669333zM896 220.032a21.333333 21.333333 0 1 0 42.666667 0v-113.258667A149.397333 149.397333 0 0 0 789.333333-42.666667H234.666667c-82.389333 0-149.333333 66.986667-149.333334 149.205334v122.752a21.333333 21.333333 0 0 0 42.666667 0v-122.752A106.773333 106.773333 0 0 1 234.666667 0h554.666666c58.88 0 106.666667 47.808 106.666667 106.773333v113.28zM128 532.949333a21.333333 21.333333 0 1 0-42.666667 0v128.213334C85.333333 743.701333 152.170667 810.666667 234.624 810.666667h128.725333a21.333333 21.333333 0 0 0 0-42.666667h-128.725333A106.730667 106.730667 0 0 1 128 661.141333v-128.192zM106.666667 362.666667a21.333333 21.333333 0 0 0 0 42.666666h810.666666a21.333333 21.333333 0 0 0 0-42.666666H106.666667z"  horiz-adv-x="1024" />

    
    <glyph glyph-name="wode" unicode="&#58931;" d="M512 332.8c-127.9744 0-230.4 115.2512-230.4 256s102.4256 256 230.4 256 230.4-115.2512 230.4-256-102.4256-256-230.4-256z m0 51.2c98.2528 0 179.2 91.0592 179.2 204.8s-80.9472 204.8-179.2 204.8-179.2-91.0592-179.2-204.8 80.9472-204.8 179.2-204.8zM128 102.4a179.2 179.2 0 0 0 179.3792 179.2h409.2416C815.6416 281.6 896 201.2672 896 102.4a179.2 179.2 0 0 0-179.3792-179.2H307.3792C208.3584-76.8 128 3.5328 128 102.4z m51.2 0c0-70.5792 57.4464-128 128.1792-128h409.2416A128 128 0 0 1 844.8 102.4c0 70.5792-57.4464 128-128.1792 128H307.3792A128 128 0 0 1 179.2 102.4z"  horiz-adv-x="1024" />

    
    <glyph glyph-name="fenlei" unicode="&#58933;" d="M575.68 160a160.32 160.32 0 1 1 160.32 160.32H599.893333c-13.461333 0-24.192-10.752-24.192-24.192V160zM736 362.666667A202.666667 202.666667 0 1 0 533.333333 160V296.106667A66.432 66.432 0 0 0 599.872 362.666667H736zM490.666667 160a202.666667 202.666667 0 1 0-202.666667 202.666667h136.128A66.432 66.432 0 0 0 490.666667 296.128V160z m-202.666667 160.32a160.32 160.32 0 1 1 160.32-160.32V296.106667c0 13.44-10.730667 24.192-24.192 24.192H288zM533.333333 608.021333A202.666667 202.666667 0 1 0 736 405.333333H599.893333A66.432 66.432 0 0 0 533.333333 471.872V608z m202.666667-160.341333a160.32 160.32 0 1 1-160.32 160.32v-136.128c0-13.44 10.730667-24.192 24.192-24.192H736zM448.32 608a160.32 160.32 0 1 1-160.32-160.32h136.128c13.461333 0 24.192 10.752 24.192 24.192V608zM288 405.333333A202.666667 202.666667 0 1 0 490.666667 608v-136.128A66.432 66.432 0 0 0 424.128 405.333333H288z"  horiz-adv-x="1024" />

    
    <glyph glyph-name="xiaoxi" unicode="&#58934;" d="M490.752 104.768A21.333333 21.333333 0 0 0 512 128c13.866667 0 27.669333 0.618667 41.344 1.834667C748.032 147.221333 896 284.906667 896 448c0 175.850667-171.178667 320-384 320S128 623.850667 128 448c0-89.770667 44.693333-173.845333 122.410667-234.176a21.333333 21.333333 0 0 0-26.154667-33.706667C136.512 248.234667 85.333333 344.490667 85.333333 448c0 201.173333 191.765333 362.666667 426.666667 362.666667s426.666667-161.493333 426.666667-362.666667c0-186.816-166.186667-341.44-381.525334-360.661333-8.96-0.789333-17.92-1.365333-26.965333-1.685334-18.986667-73.557333-82.602667-116.778667-161.002667-127.445333-31.616-4.309333-61.952-2.197333-80.554666 5.866667-32.917333 14.250667-30.037333 46.933333 3.178666 64.256 20.352 10.602667 31.893333 25.450667 37.013334 44.224 4.48 16.490667 3.712 34.922667-0.426667 52.565333a95.061333 95.061333 0 0 1-3.114667 10.965333 21.333333 21.333333 0 0 0 39.893334 15.189334c1.28-3.456 3.072-9.088 4.778666-16.448 5.589333-23.957333 6.634667-49.152 0.021334-73.472a108.842667 108.842667 0 0 0-44.096-62.229334c10.752-0.853333 23.893333-0.512 37.546666 1.344 65.877333 8.981333 116.053333 44.714667 127.338667 104.32zM352 469.333333a21.333333 21.333333 0 0 0 0 42.666667h341.333333a21.333333 21.333333 0 0 0 0-42.666667h-341.333333z m0-128a21.333333 21.333333 0 0 0 0 42.666667h213.333333a21.333333 21.333333 0 0 0 0-42.666667h-213.333333z"  horiz-adv-x="1024" />

    
    <glyph glyph-name="faxian" unicode="&#58935;" d="M512-76.8c-253.44 0-460.8 207.36-460.8 460.8S258.56 844.8 512 844.8s460.8-207.36 460.8-460.8-207.36-460.8-460.8-460.8z m0 51.2c225.28 0 409.6 184.32 409.6 409.6S737.28 793.6 512 793.6 102.4 609.28 102.4 384s184.32-409.6 409.6-409.6z m0 204.8c-143.36 0-281.6 104.96-281.6 204.8s138.24 204.8 281.6 204.8 281.6-104.96 281.6-204.8-138.24-204.8-281.6-204.8z m0 51.2c117.76 0 230.4 87.04 230.4 153.6s-112.64 153.6-230.4 153.6-230.4-87.04-230.4-153.6 112.64-153.6 230.4-153.6z m0 51.2c-56.32 0-102.4 46.08-102.4 102.4s46.08 102.4 102.4 102.4 102.4-46.08 102.4-102.4-46.08-102.4-102.4-102.4z m0 51.2c28.16 0 51.2 23.04 51.2 51.2s-23.04 51.2-51.2 51.2-51.2-23.04-51.2-51.2 23.04-51.2 51.2-51.2z"  horiz-adv-x="1024" />

    
    <glyph glyph-name="zhiding" unicode="&#58936;" d="M511.5648 537.6a12.7616 12.7616 0 0 1-9.6-3.8784L355.584 383.0912a12.8 12.8 0 1 1 18.368-17.8432L499.2 494.144V166.4a12.8 12.8 0 0 1 25.6 0V495.488l120.768-126.8736a12.8 12.8 0 1 1 18.5472 17.6512l-140.288 147.3536a12.7744 12.7744 0 0 1-10.5472 3.9168 12.9536 12.9536 0 0 1-1.7152 0.0512zM512-128C229.2352-128 0 101.2352 0 384S229.2352 896 512 896s512-229.2352 512-512-229.2352-512-512-512zM320 576h384a12.8 12.8 0 0 1 0 25.6H320a12.8 12.8 0 0 1 0-25.6z"  horiz-adv-x="1024" />

    
    <glyph glyph-name="f113" unicode="&#58628;" d="M653.975004528977 255.81696617231808l-284.65275761634496 8.526512829121202e-14c-15.75316235217646 4.440892098500626e-15-28.494545168392424 12.642404146020091-28.49454516839242 28.39415251719376 2.220446049250313e-15 7.325835575498273 2.809580252560334 13.94750861160296 7.32583557549828 18.964313209531518l140.77029271459296 187.8289944687249c9.432667269667823 12.440204862619915 27.190854683812354 15.050413793785669 39.734280159636555 5.619160505120647 2.2086383263710285-1.6062824191789302 4.113270737140412-3.5123288109511126 5.6191605051206555-5.61916050512066L676.6510178708543 301.16899285607224c9.330860637466332-12.441618843622717 6.821044357499247-30.300198908965918-5.719553156319353-39.63247352743505C665.8128534844049 257.62261991289165 659.893929006691 255.81696617231808 653.975004528977 255.81696617231808L653.975004528977 255.81696617231808z"  horiz-adv-x="1024" />

    
    <glyph glyph-name="dizhiguanli" unicode="&#58943;" d="M821.653333 262.186667L576.533333-21.333333a85.333333 85.333333 0 0 0-129.066666-0.064L198.634667 266.048c-1.152 1.322667-2.133333 2.773333-2.88 4.266667A361.088 361.088 0 0 0 149.333333 448c0 200.298667 162.368 362.666667 362.666667 362.666667s362.666667-162.368 362.666667-362.666667c0-63.744-16.490667-125.162667-47.381334-179.370667a21.269333 21.269333 0 0 0-5.632-6.421333zM792.32 293.546667A318.442667 318.442667 0 0 1 832 448c0 176.725333-143.274667 320-320 320-176.725333 0-320-143.274667-320-320 0-55.317333 14.037333-108.522667 40.384-155.733333l247.317333-285.738667a42.666667 42.666667 0 0 1 64.554667 0.021333L792.32 293.546667zM512 298.666667a149.333333 149.333333 0 1 0 0 298.666666 149.333333 149.333333 0 0 0 0-298.666666z m0 42.666666a106.666667 106.666667 0 1 1 0 213.333334 106.666667 106.666667 0 0 1 0-213.333334z"  horiz-adv-x="1024" />

    
    <glyph glyph-name="daishouhuo" unicode="&#58944;" d="M114.133333 405.333333l-14.656-22.378666a21.333333 21.333333 0 0 1-3.477333-11.690667V170.666667a21.333333 21.333333 0 0 1 21.333333-21.333334h42.794667v-42.666666H117.333333a64 64 0 0 0-64 64v200.597333a64 64 0 0 0 10.453334 35.072l134.101333 204.736A64 64 0 0 0 251.434667 640h144.746666A149.376 149.376 0 0 0 544 768h277.333333a149.333333 149.333333 0 0 0 149.333334-149.333333v-362.666667a149.333333 149.333333 0 0 0-149.333334-149.333333v42.666666a106.666667 106.666667 0 0 1 106.666667 106.666667V618.666667a106.666667 106.666667 0 0 1-106.666667 106.666666h-277.333333a106.666667 106.666667 0 0 1-106.666667-106.666666v-469.333334h231.36v-42.666666h-338.773333v42.666666H394.666667V597.333333h-64v-170.666666a64 64 0 0 0-64-64h-170.666667v42.666666h18.133333z m0 0h152.533334a21.333333 21.333333 0 0 1 21.333333 21.333334v170.666666h-36.565333a21.333333 21.333333 0 0 1-17.856-9.642666L114.133333 405.333333zM245.333333 0a106.666667 106.666667 0 1 0 0 213.333333 106.666667 106.666667 0 0 0 0-213.333333z m0 42.666667a64 64 0 1 1 0 128 64 64 0 0 1 0-128zM757.333333 0a106.666667 106.666667 0 1 0 0 213.333333 106.666667 106.666667 0 0 0 0-213.333333z m0 42.666667a64 64 0 1 1 0 128 64 64 0 0 1 0-128z"  horiz-adv-x="1024" />

    
    <glyph glyph-name="qiandao" unicode="&#58945;" d="M704 725.333333H320v-53.333333a21.333333 21.333333 0 0 0-42.666667 0V725.333333h-42.666666a106.666667 106.666667 0 0 1-106.666667-106.666666v-85.333334h768v85.333334a106.666667 106.666667 0 0 1-106.666667 106.666666h-42.666666v-53.333333a21.333333 21.333333 0 0 0-42.666667 0V725.333333z m42.666667 42.666667h42.666666a149.333333 149.333333 0 0 0 149.333334-149.333333v-512a149.333333 149.333333 0 0 0-149.333334-149.333334H234.666667a149.333333 149.333333 0 0 0-149.333334 149.333334V618.666667a149.333333 149.333333 0 0 0 149.333334 149.333333h42.666666V800a21.333333 21.333333 0 0 0 42.666667 0V768h384V800a21.333333 21.333333 0 0 0 42.666667 0V768z m149.333333-277.333333H128v-384a106.666667 106.666667 0 0 1 106.666667-106.666667h554.666666a106.666667 106.666667 0 0 1 106.666667 106.666667V490.666667zM327.210667 253.696a21.333333 21.333333 0 0 0 28.245333 32l98.048-86.549333a21.333333 21.333333 0 0 1 29.866667 1.642666l179.882666 197.568a21.333333 21.333333 0 0 0 31.552-28.714666l-179.861333-197.568a64 64 0 0 0-89.664-4.906667l-98.069333 86.528z"  horiz-adv-x="1024" />

    
    <glyph glyph-name="Solid-arrow-up" unicode="&#58640;" d="M653.97500453 255.81696617l-284.65275762 0c-15.75316235 0-28.49454517 12.64240415-28.49454517 28.39415252 0 7.32583558 2.80958025 13.94750861 7.32583559 18.96431321l140.7702927 187.82899447c9.43266728 12.44020486 27.19085468 15.05041379 39.73428016 5.6191605 2.20863833-1.60628242 4.11327074-3.51232881 5.61916051-5.6191605L676.65101787 301.16899285c9.33086064-12.44161884 6.82104436-30.30019891-5.71955316-39.63247352C665.81285348 257.62261991 659.89392901 255.81696618 653.97500453 255.81696617L653.97500453 255.81696617z"  horiz-adv-x="1024" />

    
    <glyph glyph-name="gouwuche2" unicode="&#58639;" d="M357.44 129.60000000000002q18.24 0 34.56-6.72t28.8-18.72 19.2-28.32 6.72-34.56-6.72-34.56-19.2-28.32-28.8-19.2-34.56-7.2q-19.2 0-35.04 7.2t-28.32 19.2-19.2 28.32-6.72 34.56 6.72 34.56 19.2 28.32 28.32 18.72 35.04 6.72zM756.8 127.67999999999995q18.24 0 35.04-6.72t28.8-18.72 19.2-28.32 7.2-34.56-7.2-34.56-19.2-28.32-28.8-19.2-35.04-7.2-34.56 7.2-28.32 19.2-19.2 28.32-7.2 34.56 7.2 34.56 19.2 28.32 28.32 18.72 34.56 6.72zM918.08 672.96q26.88 0 41.76-7.2t21.12-17.76 5.76-22.56-3.36-20.64-12-35.52-20.64-59.04-22.56-63.84-16.8-49.92q-12.48-38.4-31.68-53.28t-47.04-14.88l-32.64 0-62.4 0-81.6 0-89.28 0-238.08 0 14.4-86.4 483.84 0q46.08 0 46.08-39.36 0-19.2-9.12-33.12t-36-13.92l-46.08 0-89.28 0-110.4 0-112.32 0-92.16 0-52.8 0q-19.2 0-32.16 8.64t-21.6 22.56-13.92 30.24-8.16 30.72q-0.96 5.76-5.28 27.84t-10.56 55.2-13.92 73.92-15.36 82.08q-18.24 96.96-41.28 216l-72 0q-14.4 0-24 7.2t-15.84 17.28-8.64 21.6-2.4 21.12q0 19.2 12.96 31.68t35.04 12.48l21.12 0 19.2 0 24 0 32.64 0q19.2 0 30.72-5.76t18.24-14.4 9.6-18.24 4.8-16.32q1.92-7.68 3.84-21.6t3.84-28.32q2.88-17.28 5.76-36.48l656.64 0z"  horiz-adv-x="1024" />

    
    <glyph glyph-name="iconfontyoujiantou" unicode="&#58641;" d="M267.354606 823.994036c-13.515828-12.812817-13.515828-33.603329 0-46.417169l414.889265-393.579937-414.889265-393.565611c-13.515828-12.821003-13.515828-33.604352 0-46.425356 13.508665-12.81998 35.418674-12.81998 48.927339 0l432.159604 410.009118c0 0 18.33867 16.991999 18.33867 29.981848 0 11.971659-18.33867 29.989011-18.33867 29.989011L316.282968 823.994036C302.77328 836.815039 280.863271 836.815039 267.354606 823.994036z"  horiz-adv-x="1024" />

    
    <glyph glyph-name="f11-copy1" unicode="&#58633;" d="M328.20792302595464 549.9378430603648l368.4938888522427 0c20.393071563698495 0 36.887279252459585-16.366076012119944 36.887279252459585-36.757317123294996 0-9.4835745239675-3.6371091640848143-18.055583691259486-9.4835745239675-24.550029244441628l-182.23253142407032-243.15182185683665c-12.210948783900248-16.104321301267337-35.199602025843475-19.483336659546435-51.43754636132228-7.274218328169629-2.859166841620776 2.0793940666332906-5.324786390700918 4.546844068236879-7.274218328169629 7.274218328169629L298.85295590747035 491.2279088233963c-12.079156202212225 16.10615175379078-8.830102973097707 39.22476712489858 7.404180457334207 51.305753779634244C312.8833744996749 547.6003551879257 320.5456487628147 549.9378430603648 328.20792302595464 549.9378430603648L328.20792302595464 549.9378430603648z"  horiz-adv-x="1024" />

    
    <glyph glyph-name="cainixihuan" unicode="&#58962;" d="M294.144 327.136a13.6 13.6 0 0 1 1.344-1.664l154.56-164.928c33.952-39.968 90.72-39.968 125.12 0.48l153.6 164.864a140.16 140.16 0 0 1 3.776 4.032l2.272 2.432a13.536 13.536 0 0 1 1.792 2.368c20.48 25.6 31.392 57.696 31.392 92.832a148.448 148.448 0 0 1-256 102.304 148.448 148.448 0 0 1-256-102.304c0-37.12 14.08-73.408 38.144-100.416zM512-32C282.24-32 96 154.24 96 384S282.24 800 512 800s416-186.24 416-416-186.24-416-416-416z"  horiz-adv-x="1024" />

    
    <glyph glyph-name="gouwuche3" unicode="&#58629;" d="M407.06393671 211.27915048q12.38375903 0 23.46396447-4.56243753t19.55330371-12.70964742 13.03553581-19.22741531 4.56243754-23.46396447-4.56243754-23.46396446-13.03553581-19.22741532-19.55330371-13.03553582-23.46396446-4.88832593q-13.03553581 0-23.78985287 4.88832593t-19.22741532 13.03553582-13.03553581 19.22741532-4.56243754 23.46396446 4.56243754 23.46396447 13.03553581 19.22741531 19.22741532 12.70964742 23.78985287 4.56243754zM678.20308162 209.97559690000003q12.38375903 0 23.78985285-4.56243753t19.55330372-12.70964742 13.03553581-19.22741532 4.88832592-23.46396445-4.88832592-23.46396447-13.03553581-19.22741533-19.55330372-13.03553581-23.78985286-4.88832593-23.46396447 4.88832593-19.22741532 13.03553581-13.03553581 19.22741533-4.88832593 23.46396447 4.88832593 23.46396445 13.03553581 19.22741532 19.22741532 12.70964742 23.46396447 4.56243753zM787.70158243 580.18481398q18.24975014 0 28.35229039-4.88832593t14.3390894-12.05787063 3.91066074-15.31675458-2.28121877-14.013201-8.14720988-24.11574126-14.013201-40.08427261-15.31675458-43.34315659-11.40609383-33.8923931q-8.47309828-26.07107163-21.50863409-36.17361188t-31.93706274-10.10254026l-22.16041088 0-42.3654914 0-55.4010272 0-60.61524152 0-161.64064408 0 9.77665185-58.65991116 328.49550249 0q31.28528595 0 31.28528594-26.72284841 0-13.03553581-6.19187951-22.48629928t-24.44162964-9.45076346l-31.28528595 0-60.61524153 0-74.95433093 0-76.25788449 0-62.5705719 0-35.84772349 0q-13.03553581 0-21.83452249 5.86599111t-14.66497778 15.31675458-9.45076347 20.53096891-5.54010271 20.8568573q-0.65177679 3.91066074-3.58477236 18.90152693t-7.16954469 37.47716546-9.45076348 50.18681288-10.42842864 55.72691559q-12.38375903 65.82945586-28.02640199 146.64977789l-48.88325931 0q-9.77665186 0-16.29441976 4.88832594t-10.75431704 11.73198223-5.86599111 14.66497778-1.62944199 14.3390894q0 13.03553581 8.79898668 21.50863409t23.78985286 8.47309827l14.3390894 0 13.0355358 0 16.29441977 0 22.16041088 0q13.03553581 0 20.8568573-3.91066074t12.38375902-9.77665186 6.51776791-12.38375902 3.25888394-11.08020544q1.30355359-5.21421433 2.60710717-14.66497779t2.60710716-19.22741532q1.95533037-11.73198223 3.91066074-24.76751805l445.81532479 0z"  horiz-adv-x="1024" />

    


  </font>
</defs>
</svg>
